<mxfile host="app.diagrams.net" modified="2023-04-05T06:44:21.539Z" agent="5.0 (Windows NT 10.0; Win64; x64) AppleWebKit/537.36 (KHTML, like Gecko) Chrome/111.0.0.0 Safari/537.36" etag="1A3aLHxMGZJpMQxleYt1" version="20.1.3" type="github" pages="2">
  <diagram id="GviLYYeBgwkS6TWRPlJ4" name="Singapore">
    <mxGraphModel dx="1273" dy="822" grid="1" gridSize="10" guides="1" tooltips="1" connect="1" arrows="1" fold="1" page="1" pageScale="1" pageWidth="1169" pageHeight="827" math="0" shadow="0">
      <root>
        <mxCell id="0" />
        <mxCell id="1" parent="0" />
        <mxCell id="WvNd0sxWSo1hWrSyto0N-75" value="Serverless Microservices" style="rounded=1;whiteSpace=wrap;html=1;labelBorderColor=none;fillColor=none;strokeColor=#6c8ebf;labelPosition=center;verticalLabelPosition=top;align=center;verticalAlign=bottom;fontStyle=1;dashed=1;" parent="1" vertex="1">
          <mxGeometry x="420" y="90" width="400" height="460" as="geometry" />
        </mxCell>
        <mxCell id="WvNd0sxWSo1hWrSyto0N-74" value="New Azure Resource Group, DNA-DPS" style="rounded=1;whiteSpace=wrap;html=1;labelBorderColor=none;fillColor=none;strokeColor=#6c8ebf;labelPosition=center;verticalLabelPosition=top;align=center;verticalAlign=bottom;fontStyle=1;dashed=1;" parent="1" vertex="1">
          <mxGeometry x="270" y="50" width="735" height="540" as="geometry" />
        </mxCell>
        <mxCell id="WvNd0sxWSo1hWrSyto0N-77" value="" style="edgeStyle=none;rounded=0;orthogonalLoop=1;jettySize=auto;html=1;startArrow=classic;startFill=1;" parent="1" source="WvNd0sxWSo1hWrSyto0N-2" target="WvNd0sxWSo1hWrSyto0N-75" edge="1">
          <mxGeometry relative="1" as="geometry" />
        </mxCell>
        <mxCell id="WvNd0sxWSo1hWrSyto0N-2" value="API Management" style="aspect=fixed;html=1;points=[];align=center;image;fontSize=12;image=img/lib/azure2/app_services/API_Management_Services.svg;" parent="1" vertex="1">
          <mxGeometry x="305" y="290.46000000000004" width="64" height="59.08" as="geometry" />
        </mxCell>
        <mxCell id="WvNd0sxWSo1hWrSyto0N-32" style="rounded=0;orthogonalLoop=1;jettySize=auto;html=1;startArrow=classic;startFill=1;entryX=0;entryY=0.585;entryDx=0;entryDy=0;entryPerimeter=0;" parent="1" source="WvNd0sxWSo1hWrSyto0N-3" target="WvNd0sxWSo1hWrSyto0N-2" edge="1">
          <mxGeometry relative="1" as="geometry" />
        </mxCell>
        <mxCell id="WvNd0sxWSo1hWrSyto0N-3" value="3rd Parties Application" style="aspect=fixed;html=1;points=[];align=center;image;fontSize=12;image=img/lib/azure2/app_services/App_Services.svg;" parent="1" vertex="1">
          <mxGeometry x="88" y="239.99999999999997" width="64" height="64" as="geometry" />
        </mxCell>
        <mxCell id="WvNd0sxWSo1hWrSyto0N-9" value="" style="group;labelPosition=center;verticalLabelPosition=bottom;align=center;verticalAlign=top;labelBorderColor=none;" parent="1" vertex="1" connectable="0">
          <mxGeometry x="60" y="45.99999999999999" width="120" height="118" as="geometry" />
        </mxCell>
        <mxCell id="WvNd0sxWSo1hWrSyto0N-4" value="" style="verticalLabelPosition=bottom;html=1;verticalAlign=top;align=center;strokeColor=none;fillColor=#00BEF2;shape=mxgraph.azure.mobile;pointerEvents=1;" parent="WvNd0sxWSo1hWrSyto0N-9" vertex="1">
          <mxGeometry x="7.5" width="35" height="50" as="geometry" />
        </mxCell>
        <mxCell id="WvNd0sxWSo1hWrSyto0N-5" value="" style="verticalLabelPosition=bottom;html=1;verticalAlign=top;align=center;strokeColor=none;fillColor=#00BEF2;shape=mxgraph.azure.laptop;pointerEvents=1;" parent="WvNd0sxWSo1hWrSyto0N-9" vertex="1">
          <mxGeometry x="70" y="80" width="50" height="30" as="geometry" />
        </mxCell>
        <mxCell id="WvNd0sxWSo1hWrSyto0N-6" value="" style="verticalLabelPosition=bottom;html=1;verticalAlign=top;align=center;strokeColor=none;fillColor=#00BEF2;shape=mxgraph.azure.computer;pointerEvents=1;" parent="WvNd0sxWSo1hWrSyto0N-9" vertex="1">
          <mxGeometry y="73" width="50" height="45" as="geometry" />
        </mxCell>
        <mxCell id="WvNd0sxWSo1hWrSyto0N-7" value="" style="verticalLabelPosition=bottom;html=1;verticalAlign=top;align=center;strokeColor=none;fillColor=#00BEF2;shape=mxgraph.azure.tablet;pointerEvents=1;" parent="WvNd0sxWSo1hWrSyto0N-9" vertex="1">
          <mxGeometry x="70" y="6.25" width="50" height="37.5" as="geometry" />
        </mxCell>
        <mxCell id="WvNd0sxWSo1hWrSyto0N-13" value="Data Warehouse" style="html=1;verticalLabelPosition=bottom;align=center;labelBackgroundColor=#ffffff;verticalAlign=top;strokeWidth=2;strokeColor=#0080F0;shadow=0;dashed=0;shape=mxgraph.ios7.icons.home;" parent="1" vertex="1">
          <mxGeometry x="1060" y="418.76" width="70" height="46" as="geometry" />
        </mxCell>
        <mxCell id="WvNd0sxWSo1hWrSyto0N-43" style="rounded=0;orthogonalLoop=1;jettySize=auto;html=1;entryX=0;entryY=0.609;entryDx=0;entryDy=0;entryPerimeter=0;startArrow=classic;startFill=1;endArrow=classic;endFill=1;" parent="1" source="WvNd0sxWSo1hWrSyto0N-11" target="WvNd0sxWSo1hWrSyto0N-13" edge="1">
          <mxGeometry relative="1" as="geometry" />
        </mxCell>
        <mxCell id="WvNd0sxWSo1hWrSyto0N-78" value="" style="edgeStyle=none;rounded=0;orthogonalLoop=1;jettySize=auto;html=1;startArrow=classic;startFill=1;entryX=0.997;entryY=0.535;entryDx=0;entryDy=0;entryPerimeter=0;" parent="1" source="WvNd0sxWSo1hWrSyto0N-11" target="WvNd0sxWSo1hWrSyto0N-75" edge="1">
          <mxGeometry relative="1" as="geometry" />
        </mxCell>
        <mxCell id="WvNd0sxWSo1hWrSyto0N-11" value="Azure SQL Database" style="verticalLabelPosition=bottom;html=1;verticalAlign=top;align=center;strokeColor=none;fillColor=#00BEF2;shape=mxgraph.azure.database;" parent="1" vertex="1">
          <mxGeometry x="917" y="412.92" width="50" height="64" as="geometry" />
        </mxCell>
        <mxCell id="WvNd0sxWSo1hWrSyto0N-76" value="" style="edgeStyle=none;rounded=0;orthogonalLoop=1;jettySize=auto;html=1;startArrow=none;startFill=0;" parent="1" source="WvNd0sxWSo1hWrSyto0N-27" edge="1">
          <mxGeometry relative="1" as="geometry">
            <mxPoint x="620" y="590" as="targetPoint" />
          </mxGeometry>
        </mxCell>
        <mxCell id="WvNd0sxWSo1hWrSyto0N-42" style="rounded=0;orthogonalLoop=1;jettySize=auto;html=1;startArrow=classic;startFill=1;entryX=-0.016;entryY=0.449;entryDx=0;entryDy=0;entryPerimeter=0;" parent="1" source="WvNd0sxWSo1hWrSyto0N-40" target="WvNd0sxWSo1hWrSyto0N-2" edge="1">
          <mxGeometry relative="1" as="geometry" />
        </mxCell>
        <mxCell id="WvNd0sxWSo1hWrSyto0N-40" value="End Uses" style="rounded=0;whiteSpace=wrap;html=1;fillColor=none;labelPosition=center;verticalLabelPosition=bottom;align=center;verticalAlign=top;" parent="1" vertex="1">
          <mxGeometry x="40" y="29.999999999999993" width="160" height="150" as="geometry" />
        </mxCell>
        <mxCell id="WvNd0sxWSo1hWrSyto0N-44" value="Auto trigger &lt;br&gt;when&lt;br&gt;&amp;nbsp;code&lt;br&gt;&amp;nbsp;changes" style="edgeStyle=orthogonalEdgeStyle;rounded=0;orthogonalLoop=1;jettySize=auto;html=1;startArrow=none;startFill=0;" parent="1" source="WvNd0sxWSo1hWrSyto0N-26" target="WvNd0sxWSo1hWrSyto0N-27" edge="1">
          <mxGeometry relative="1" as="geometry" />
        </mxCell>
        <mxCell id="WvNd0sxWSo1hWrSyto0N-79" style="edgeStyle=none;rounded=0;orthogonalLoop=1;jettySize=auto;html=1;entryX=1;entryY=0.5;entryDx=0;entryDy=0;startArrow=classic;startFill=1;" parent="1" source="WvNd0sxWSo1hWrSyto0N-46" target="WvNd0sxWSo1hWrSyto0N-75" edge="1">
          <mxGeometry relative="1" as="geometry" />
        </mxCell>
        <mxCell id="WvNd0sxWSo1hWrSyto0N-46" value="Azure Storage" style="verticalLabelPosition=bottom;html=1;verticalAlign=top;align=center;strokeColor=none;fillColor=#00BEF2;shape=mxgraph.azure.storage;pointerEvents=1;labelBorderColor=none;aspect=fixed;" parent="1" vertex="1">
          <mxGeometry x="910" y="293.56" width="64" height="51.2" as="geometry" />
        </mxCell>
        <mxCell id="WvNd0sxWSo1hWrSyto0N-81" value="Get secret keys" style="edgeStyle=none;rounded=0;orthogonalLoop=1;jettySize=auto;html=1;startArrow=none;startFill=0;entryX=1;entryY=0.455;entryDx=0;entryDy=0;exitX=0;exitY=0.5;exitDx=0;exitDy=0;entryPerimeter=0;endArrow=classic;endFill=1;" parent="1" source="WvNd0sxWSo1hWrSyto0N-47" target="WvNd0sxWSo1hWrSyto0N-75" edge="1">
          <mxGeometry relative="1" as="geometry" />
        </mxCell>
        <mxCell id="WvNd0sxWSo1hWrSyto0N-47" value="Azure Key Vault" style="shape=image;verticalLabelPosition=bottom;labelBackgroundColor=default;verticalAlign=top;aspect=fixed;imageAspect=0;image=data:image/svg+xml,PHN2ZyB4bWxucz0iaHR0cDovL3d3dy53My5vcmcvMjAwMC9zdmciIGFyaWEtbGFiZWxsZWRieT0ic3ZnLXRpdGxlLUtleVZhdWx0LWYyZjVjZmY4LWRlMTgtNDIxYS1iMjQ1LTNkN2FiMDRiMWE5OSIgaWQ9InN2Zy1LZXlWYXVsdC1mMmY1Y2ZmOC1kZTE4LTQyMWEtYjI0NS0zZDdhYjA0YjFhOTkiIHZpZXdCb3g9IjAgMCAxOCAxOCIgZGF0YS1zbHVnLWlkPSJrZXktdmF1bHQiIHJvbGU9ImltZyI+PHRpdGxlIGlkPSJzdmctdGl0bGUtS2V5VmF1bHQtZjJmNWNmZjgtZGUxOC00MjFhLWIyNDUtM2Q3YWIwNGIxYTk5Ij5LZXkgVmF1bHQ8L3RpdGxlPjxkZWZzPjxyYWRpYWxHcmFkaWVudCBpZD0ic3ZnLWdyYWRpZW50MS1LZXlWYXVsdC1mMmY1Y2ZmOC1kZTE4LTQyMWEtYjI0NS0zZDdhYjA0YjFhOTkiIGN4PSI5IiBjeT0iOSIgcj0iOC41IiBncmFkaWVudFVuaXRzPSJ1c2VyU3BhY2VPblVzZSI+PHN0b3Agb2Zmc2V0PSIwLjE4IiBzdG9wLWNvbG9yPSIjNWVhMGVmIi8+PHN0b3Agb2Zmc2V0PSIwLjU2IiBzdG9wLWNvbG9yPSIjNWM5ZmVlIi8+PHN0b3Agb2Zmc2V0PSIwLjY5IiBzdG9wLWNvbG9yPSIjNTU5Y2VkIi8+PHN0b3Agb2Zmc2V0PSIwLjc4IiBzdG9wLWNvbG9yPSIjNGE5N2U5Ii8+PHN0b3Agb2Zmc2V0PSIwLjg2IiBzdG9wLWNvbG9yPSIjMzk5MGU0Ii8+PHN0b3Agb2Zmc2V0PSIwLjkzIiBzdG9wLWNvbG9yPSIjMjM4N2RlIi8+PHN0b3Agb2Zmc2V0PSIwLjk5IiBzdG9wLWNvbG9yPSIjMDg3YmQ2Ii8+PHN0b3Agb2Zmc2V0PSIxIiBzdG9wLWNvbG9yPSIjMDA3OGQ0Ii8+PC9yYWRpYWxHcmFkaWVudD48cmFkaWFsR3JhZGllbnQgaWQ9InN2Zy1ncmFkaWVudDItS2V5VmF1bHQtZjJmNWNmZjgtZGUxOC00MjFhLWIyNDUtM2Q3YWIwNGIxYTk5IiBjeD0iMzguOTUiIGN5PSIxODIuMDciIHI9IjkuODgiIGdyYWRpZW50VHJhbnNmb3JtPSJ0cmFuc2xhdGUoLTI4LjcxIC0xNjMuMjQpIHNjYWxlKDAuOTQgMC45NCkiIGdyYWRpZW50VW5pdHM9InVzZXJTcGFjZU9uVXNlIj48c3RvcCBvZmZzZXQ9IjAuMjciIHN0b3AtY29sb3I9IiNmZmQ3MGYiLz48c3RvcCBvZmZzZXQ9IjAuNDkiIHN0b3AtY29sb3I9IiNmZmNiMTIiLz48c3RvcCBvZmZzZXQ9IjAuODgiIHN0b3AtY29sb3I9IiNmZWFjMTkiLz48c3RvcCBvZmZzZXQ9IjEiIHN0b3AtY29sb3I9IiNmZWExMWIiLz48L3JhZGlhbEdyYWRpZW50PjwvZGVmcz48cGF0aCBkPSJNOSwuNUE4LjUsOC41LDAsMSwwLDE3LjUsOSw4LjUxLDguNTEsMCwwLDAsOSwuNVpNOSwxNi4zNEE3LjM0LDcuMzQsMCwxLDEsMTYuMzQsOSw3LjM0LDcuMzQsMCwwLDEsOSwxNi4zNFoiIGZpbGw9InVybCgjc3ZnLWdyYWRpZW50MS1LZXlWYXVsdC1mMmY1Y2ZmOC1kZTE4LTQyMWEtYjI0NS0zZDdhYjA0YjFhOTkpIi8+PGNpcmNsZSBjeD0iOSIgY3k9IjkiIHI9IjcuMzQiIGZpbGw9IiNmZmYiLz48cGF0aCBkPSJNMTMuNDQsNy4zM2ExLjg0LDEuODQsMCwwLDAsMC0yLjU5aDBMMTAuMjksMS41OGExLjgzLDEuODMsMCwwLDAtMi41OCwwaDBMNC41Niw0Ljc0YTEuODQsMS44NCwwLDAsMCwwLDIuNTlMNy4xOCwxMGEuNTEuNTEsMCwwLDEsLjE1LjM2djQuODhhLjYzLjYzLDAsMCwwLC4xOC40NGwxLjIsMS4yYS40MS40MSwwLDAsMCwuNTgsMGwxLjE2LTEuMTZoMGwuNjgtLjY4YS4yNS4yNSwwLDAsMCwwLS4zNGwtLjQ5LS40OWEuMjcuMjcsMCwwLDEsMC0uMzdsLjQ5LS40OWEuMjUuMjUsMCwwLDAsMC0uMzRsLS40OS0uNDlhLjI3LjI3LDAsMCwxLDAtLjM3bC40OS0uNDlhLjI1LjI1LDAsMCwwLDAtLjM0bC0uNjgtLjY5di0uMjVaTTksMi4zNUExLDEsMCwwLDEsOSw0LjQyLDEsMSwwLDEsMSw5LDIuMzVaIiBmaWxsPSJ1cmwoI3N2Zy1ncmFkaWVudDItS2V5VmF1bHQtZjJmNWNmZjgtZGUxOC00MjFhLWIyNDUtM2Q3YWIwNGIxYTk5KSIvPjxwYXRoIGQ9Ik04LjE4LDE1LjNoMGEuMjMuMjMsMCwwLDAsLjM4LS4xN3YtNGEuMjQuMjQsMCwwLDAtLjExLS4yaDBhLjIyLjIyLDAsMCwwLS4zNC4ydjRBLjI4LjI4LDAsMCwwLDguMTgsMTUuM1oiIGZpbGw9IiNmZjkzMDAiIG9wYWNpdHk9IjAuNzUiLz48cmVjdCB4PSI2LjQ4IiB5PSI1Ljc5IiByeD0iMC4yOCIgd2lkdGg9IjUuMTciIGhlaWdodD0iMC42MSIgZmlsbD0iI2ZmOTMwMCIgb3BhY2l0eT0iMC43NSIvPjxyZWN0IHg9IjYuNDgiIHk9IjYuNzgiIHJ4PSIwLjI4IiB3aWR0aD0iNS4xNyIgaGVpZ2h0PSIwLjYxIiBmaWxsPSIjZmY5MzAwIiBvcGFjaXR5PSIwLjc1Ii8+PC9zdmc+;" parent="1" vertex="1">
          <mxGeometry x="910" y="132.16" width="64" height="64" as="geometry" />
        </mxCell>
        <mxCell id="BDs_c900TrFTkh-3AqSk-3" value="" style="group" parent="1" vertex="1" connectable="0">
          <mxGeometry x="180" y="638.12" width="200" height="120" as="geometry" />
        </mxCell>
        <mxCell id="WvNd0sxWSo1hWrSyto0N-26" value="Source Control" style="rounded=0;whiteSpace=wrap;html=1;fillColor=none;labelPosition=center;verticalLabelPosition=bottom;align=center;verticalAlign=top;" parent="BDs_c900TrFTkh-3AqSk-3" vertex="1">
          <mxGeometry width="200" height="120" as="geometry" />
        </mxCell>
        <mxCell id="WvNd0sxWSo1hWrSyto0N-15" value="Github" style="verticalLabelPosition=bottom;html=1;verticalAlign=top;align=center;strokeColor=none;fillColor=#00BEF2;shape=mxgraph.azure.github_code;pointerEvents=1;aspect=fixed;" parent="BDs_c900TrFTkh-3AqSk-3" vertex="1">
          <mxGeometry x="15" y="20" width="64" height="64" as="geometry" />
        </mxCell>
        <mxCell id="WvNd0sxWSo1hWrSyto0N-19" value="Azure Repo" style="sketch=0;html=1;points=[];align=center;image;fontSize=12;image=img/lib/mscae/Azure_Repos.svg;" parent="BDs_c900TrFTkh-3AqSk-3" vertex="1">
          <mxGeometry x="127.5" y="20" width="55" height="64" as="geometry" />
        </mxCell>
        <mxCell id="BDs_c900TrFTkh-3AqSk-1" value="OR" style="text;html=1;strokeColor=none;fillColor=none;align=center;verticalAlign=middle;whiteSpace=wrap;rounded=0;" parent="BDs_c900TrFTkh-3AqSk-3" vertex="1">
          <mxGeometry x="70" y="45" width="60" height="30" as="geometry" />
        </mxCell>
        <mxCell id="BDs_c900TrFTkh-3AqSk-4" value="" style="group" parent="1" vertex="1" connectable="0">
          <mxGeometry x="510" y="638.12" width="220" height="120" as="geometry" />
        </mxCell>
        <mxCell id="WvNd0sxWSo1hWrSyto0N-27" value="CI/CD Pipelines" style="rounded=0;whiteSpace=wrap;html=1;fillColor=none;labelPosition=center;verticalLabelPosition=bottom;align=center;verticalAlign=top;" parent="BDs_c900TrFTkh-3AqSk-4" vertex="1">
          <mxGeometry width="220" height="120" as="geometry" />
        </mxCell>
        <mxCell id="WvNd0sxWSo1hWrSyto0N-17" value="Azure DevOps" style="sketch=0;aspect=fixed;html=1;points=[];align=center;image;fontSize=12;image=img/lib/mscae/Azure_Pipelines.svg;" parent="BDs_c900TrFTkh-3AqSk-4" vertex="1">
          <mxGeometry x="145" y="20" width="64" height="64" as="geometry" />
        </mxCell>
        <mxCell id="WvNd0sxWSo1hWrSyto0N-23" value="Github Actions" style="verticalLabelPosition=bottom;html=1;verticalAlign=top;align=center;strokeColor=none;fillColor=#00BEF2;shape=mxgraph.azure.github_code;pointerEvents=1;aspect=fixed;" parent="BDs_c900TrFTkh-3AqSk-4" vertex="1">
          <mxGeometry x="20" y="20" width="64" height="64" as="geometry" />
        </mxCell>
        <mxCell id="BDs_c900TrFTkh-3AqSk-2" value="OR" style="text;html=1;strokeColor=none;fillColor=none;align=center;verticalAlign=middle;whiteSpace=wrap;rounded=0;" parent="BDs_c900TrFTkh-3AqSk-4" vertex="1">
          <mxGeometry x="84" y="37" width="60" height="30" as="geometry" />
        </mxCell>
        <mxCell id="BDs_c900TrFTkh-3AqSk-6" value="" style="rounded=0;orthogonalLoop=1;jettySize=auto;html=1;startArrow=classic;startFill=1;" parent="1" source="BDs_c900TrFTkh-3AqSk-5" target="WvNd0sxWSo1hWrSyto0N-40" edge="1">
          <mxGeometry relative="1" as="geometry" />
        </mxCell>
        <mxCell id="BDs_c900TrFTkh-3AqSk-5" value="Azure Static Web Apps" style="shape=image;verticalLabelPosition=bottom;labelBackgroundColor=default;verticalAlign=top;aspect=fixed;imageAspect=0;image=data:image/svg+xml,PHN2ZyB4bWxucz0iaHR0cDovL3d3dy53My5vcmcvMjAwMC9zdmciIGFyaWEtbGFiZWxsZWRieT0ic3ZnLXRpdGxlLUF6dXJlLTk1YmU2ZTVkLWY5ZmQtNDBhMC1hNzY1LTA0OTVkZjRhMjQ2OSIgaWQ9InN2Zy1BenVyZS05NWJlNmU1ZC1mOWZkLTQwYTAtYTc2NS0wNDk1ZGY0YTI0NjkiIHZpZXdCb3g9IjAgMCAxOCAxOCIgZGF0YS1zbHVnLWlkPSJhenVyZSIgcm9sZT0iaW1nIj48dGl0bGUgaWQ9InN2Zy10aXRsZS1BenVyZS05NWJlNmU1ZC1mOWZkLTQwYTAtYTc2NS0wNDk1ZGY0YTI0NjkiPlN0YXRpYyBXZWIgQXBwczwvdGl0bGU+PGRlZnM+PGxpbmVhckdyYWRpZW50IGlkPSJzdmctZ3JhZGllbnQxLUF6dXJlLTk1YmU2ZTVkLWY5ZmQtNDBhMC1hNzY1LTA0OTVkZjRhMjQ2OSIgeDE9Ii04MTEuOTM1NCIgeTE9IjEwNy40MjA4IiB4Mj0iLTgxNi44NTI0IiB5Mj0iOTIuODk0OSIgZ3JhZGllbnRUcmFuc2Zvcm09Im1hdHJpeCgxLCAwLCAwLCAtMSwgODIwLCAxMTApIiBncmFkaWVudFVuaXRzPSJ1c2VyU3BhY2VPblVzZSI+PHN0b3Agb2Zmc2V0PSIwIiBzdG9wLWNvbG9yPSIjMTE0YThiIi8+PHN0b3Agb2Zmc2V0PSIxIiBzdG9wLWNvbG9yPSIjMDY2OWJjIi8+PC9saW5lYXJHcmFkaWVudD48bGluZWFyR3JhZGllbnQgaWQ9InN2Zy1ncmFkaWVudDItQXp1cmUtOTViZTZlNWQtZjlmZC00MGEwLWE3NjUtMDQ5NWRmNGEyNDY5IiB4MT0iLTgxMS4wMzQ5IiB5MT0iMTA3Ljg0NDYiIHgyPSItODA1LjYzNzYiIHkyPSI5My40NjQ5IiBncmFkaWVudFRyYW5zZm9ybT0ibWF0cml4KDEsIDAsIDAsIC0xLCA4MjAsIDExMCkiIGdyYWRpZW50VW5pdHM9InVzZXJTcGFjZU9uVXNlIj48c3RvcCBvZmZzZXQ9IjAiIHN0b3AtY29sb3I9IiMzY2NiZjQiLz48c3RvcCBvZmZzZXQ9IjEiIHN0b3AtY29sb3I9IiMyODkyZGYiLz48L2xpbmVhckdyYWRpZW50PjwvZGVmcz48cGF0aCBkPSJNNi4zMywxLjQ2Mmg0Ljc0MzRMNi4xNTU5LDE2LjAzMjhhLjc0MjcuNzQyNywwLDAsMS0uNzAzNy41MDUySDEuNzQzMmEuNzQyNi43NDI2LDAsMCwxLS43MDM2LS45OEw1LjYyNjUsMS45NjcxQS43NDI2Ljc0MjYsMCwwLDEsNi4zMywxLjQ2MloiIGZpbGw9InVybCgjc3ZnLWdyYWRpZW50MS1BenVyZS05NWJlNmU1ZC1mOWZkLTQwYTAtYTc2NS0wNDk1ZGY0YTI0NjkpIi8+PHBhdGggZD0iTTEyLjg3OTMsMTAuOTU0M0g1LjQwMzVhLjM0NTQuMzQ1NCwwLDAsMC0uMjM1Ny41OTc5bDUuMTI2NCw0Ljc4NTlhLjc0My43NDMsMCwwLDAsLjUwNjkuMmg0LjIzNjZaIiBmaWxsPSIjMDA3OGQ0Ii8+PGcgb3BhY2l0eT0iMC41Ij48cGF0aCBkPSJNMTEuNTQ4MywxNi41MzhoMy40ODUxbC0yLjE1ODUtNS41ODM3SDEwLjAzMjZMMTEuNjc3LDE1LjgyMUEuNzUxLjc1MSwwLDAsMSwxMS41NDgzLDE2LjUzOFoiLz48cGF0aCBkPSJNOC45NTEsNy43NDc3LDExLjA3MjQsMS40NjJINi43Njg1YS43NTM4Ljc1MzgsMCwwLDEsLjE0MzcuMjUxNVoiLz48L2c+PGcgb3BhY2l0eT0iMC41Ij48cGF0aCBkPSJNNi41LDEuNDYybDIuMzEyNyw2LjcuMzItLjk1M0w3LjE5NjUsMS40NjJaIiBmaWxsLW9wYWNpdHk9IjAuNSIvPjxwYXRoIGQ9Ik0xMC44ODE2LDE2LjUzNzlsNC4xNTIxLDAtMy4xNTI1LDBhMS4wMjU2LDEuMDI1NiwwLDAsMCwuMDYxLS44MDY0TDEwLjMyOCwxMC45NTQyaC0uNTlsMS42NzQ2LDQuOTU2M2EuNDc1Mi40NzUyLDAsMCwxLS40NS42Mjc0WiIgZmlsbC1vcGFjaXR5PSIwLjUiLz48L2c+PHBhdGggZD0iTTEyLjM3MzYsMS45NjcyQS43NDI3Ljc0MjcsMCwwLDAsMTEuNjcsMS40NjJINi4zODU0QS43NTM2Ljc1MzYsMCwwLDEsNy4xLDEuOTc0OGw0LjU3OTQsMTMuNTY4NWEuNzUzNi43NTM2LDAsMCwxLS43MTQuOTk0N2g1LjI5MTlhLjc0MjcuNzQyNywwLDAsMCwuNzAzNi0uOThaIiBmaWxsPSJ1cmwoI3N2Zy1ncmFkaWVudDItQXp1cmUtOTViZTZlNWQtZjlmZC00MGEwLWE3NjUtMDQ5NWRmNGEyNDY5KSIvPjwvc3ZnPg==;" parent="1" vertex="1">
          <mxGeometry x="320" y="118.53999999999999" width="64" height="64" as="geometry" />
        </mxCell>
        <mxCell id="BDs_c900TrFTkh-3AqSk-7" value="Current Azure Resource Group, DNA" style="rounded=1;whiteSpace=wrap;html=1;labelBorderColor=none;fillColor=none;strokeColor=#6c8ebf;labelPosition=center;verticalLabelPosition=top;align=center;verticalAlign=bottom;fontStyle=1;dashed=1;" parent="1" vertex="1">
          <mxGeometry x="1030" y="357.88" width="130" height="200" as="geometry" />
        </mxCell>
        <mxCell id="BDs_c900TrFTkh-3AqSk-15" value="" style="edgeStyle=none;rounded=0;orthogonalLoop=1;jettySize=auto;html=1;startArrow=classic;startFill=1;" parent="1" source="BDs_c900TrFTkh-3AqSk-8" target="WvNd0sxWSo1hWrSyto0N-2" edge="1">
          <mxGeometry relative="1" as="geometry" />
        </mxCell>
        <mxCell id="BDs_c900TrFTkh-3AqSk-8" value="Power Apps" style="aspect=fixed;html=1;points=[];align=center;image;fontSize=12;image=https://powerautomate.microsoft.com/images/application-logos/svg/powerapps.svg;" parent="1" vertex="1">
          <mxGeometry x="88" y="368.21999999999997" width="64" height="64" as="geometry" />
        </mxCell>
        <mxCell id="BDs_c900TrFTkh-3AqSk-16" style="edgeStyle=none;rounded=0;orthogonalLoop=1;jettySize=auto;html=1;startArrow=classic;startFill=1;" parent="1" source="BDs_c900TrFTkh-3AqSk-9" edge="1">
          <mxGeometry relative="1" as="geometry">
            <mxPoint x="310" y="340" as="targetPoint" />
          </mxGeometry>
        </mxCell>
        <mxCell id="BDs_c900TrFTkh-3AqSk-9" value="Power Automate" style="aspect=fixed;html=1;points=[];align=center;image;fontSize=12;image=https://powerapps.microsoft.com/images/application-logos/svg/powerautomate.svg;" parent="1" vertex="1">
          <mxGeometry x="88" y="480.46" width="64" height="64" as="geometry" />
        </mxCell>
        <mxCell id="BDs_c900TrFTkh-3AqSk-25" value="" style="group" parent="1" vertex="1" connectable="0">
          <mxGeometry x="440" y="120" width="360" height="90" as="geometry" />
        </mxCell>
        <mxCell id="BDs_c900TrFTkh-3AqSk-19" value="Microservice 1" style="rounded=0;whiteSpace=wrap;html=1;fillColor=none;labelPosition=center;verticalLabelPosition=bottom;align=center;verticalAlign=top;" parent="BDs_c900TrFTkh-3AqSk-25" vertex="1">
          <mxGeometry width="360" height="90" as="geometry" />
        </mxCell>
        <mxCell id="BDs_c900TrFTkh-3AqSk-22" value="Azure SQL Database" style="verticalLabelPosition=bottom;html=1;verticalAlign=top;align=center;strokeColor=none;fillColor=#00BEF2;shape=mxgraph.azure.database;" parent="BDs_c900TrFTkh-3AqSk-25" vertex="1">
          <mxGeometry x="281" y="7.759999999999991" width="40" height="54" as="geometry" />
        </mxCell>
        <mxCell id="BDs_c900TrFTkh-3AqSk-24" value="" style="edgeStyle=none;rounded=0;orthogonalLoop=1;jettySize=auto;html=1;startArrow=classic;startFill=1;" parent="BDs_c900TrFTkh-3AqSk-25" source="BDs_c900TrFTkh-3AqSk-18" target="BDs_c900TrFTkh-3AqSk-22" edge="1">
          <mxGeometry relative="1" as="geometry" />
        </mxCell>
        <mxCell id="BDs_c900TrFTkh-3AqSk-18" value="Azure Functions" style="html=1;points=[];align=center;image;fontSize=12;image=img/lib/azure2/compute/Function_Apps.svg;" parent="BDs_c900TrFTkh-3AqSk-25" vertex="1">
          <mxGeometry x="158" y="7.759999999999991" width="54" height="54" as="geometry" />
        </mxCell>
        <mxCell id="BDs_c900TrFTkh-3AqSk-20" value="" style="edgeStyle=orthogonalEdgeStyle;rounded=0;orthogonalLoop=1;jettySize=auto;html=1;startArrow=classic;startFill=1;" parent="BDs_c900TrFTkh-3AqSk-25" source="BDs_c900TrFTkh-3AqSk-21" target="BDs_c900TrFTkh-3AqSk-18" edge="1">
          <mxGeometry relative="1" as="geometry" />
        </mxCell>
        <mxCell id="BDs_c900TrFTkh-3AqSk-21" value="Azure Static Web Apps" style="shape=image;verticalLabelPosition=bottom;labelBackgroundColor=default;verticalAlign=top;aspect=fixed;imageAspect=0;image=data:image/svg+xml,PHN2ZyB4bWxucz0iaHR0cDovL3d3dy53My5vcmcvMjAwMC9zdmciIGFyaWEtbGFiZWxsZWRieT0ic3ZnLXRpdGxlLUF6dXJlLTk1YmU2ZTVkLWY5ZmQtNDBhMC1hNzY1LTA0OTVkZjRhMjQ2OSIgaWQ9InN2Zy1BenVyZS05NWJlNmU1ZC1mOWZkLTQwYTAtYTc2NS0wNDk1ZGY0YTI0NjkiIHZpZXdCb3g9IjAgMCAxOCAxOCIgZGF0YS1zbHVnLWlkPSJhenVyZSIgcm9sZT0iaW1nIj48dGl0bGUgaWQ9InN2Zy10aXRsZS1BenVyZS05NWJlNmU1ZC1mOWZkLTQwYTAtYTc2NS0wNDk1ZGY0YTI0NjkiPlN0YXRpYyBXZWIgQXBwczwvdGl0bGU+PGRlZnM+PGxpbmVhckdyYWRpZW50IGlkPSJzdmctZ3JhZGllbnQxLUF6dXJlLTk1YmU2ZTVkLWY5ZmQtNDBhMC1hNzY1LTA0OTVkZjRhMjQ2OSIgeDE9Ii04MTEuOTM1NCIgeTE9IjEwNy40MjA4IiB4Mj0iLTgxNi44NTI0IiB5Mj0iOTIuODk0OSIgZ3JhZGllbnRUcmFuc2Zvcm09Im1hdHJpeCgxLCAwLCAwLCAtMSwgODIwLCAxMTApIiBncmFkaWVudFVuaXRzPSJ1c2VyU3BhY2VPblVzZSI+PHN0b3Agb2Zmc2V0PSIwIiBzdG9wLWNvbG9yPSIjMTE0YThiIi8+PHN0b3Agb2Zmc2V0PSIxIiBzdG9wLWNvbG9yPSIjMDY2OWJjIi8+PC9saW5lYXJHcmFkaWVudD48bGluZWFyR3JhZGllbnQgaWQ9InN2Zy1ncmFkaWVudDItQXp1cmUtOTViZTZlNWQtZjlmZC00MGEwLWE3NjUtMDQ5NWRmNGEyNDY5IiB4MT0iLTgxMS4wMzQ5IiB5MT0iMTA3Ljg0NDYiIHgyPSItODA1LjYzNzYiIHkyPSI5My40NjQ5IiBncmFkaWVudFRyYW5zZm9ybT0ibWF0cml4KDEsIDAsIDAsIC0xLCA4MjAsIDExMCkiIGdyYWRpZW50VW5pdHM9InVzZXJTcGFjZU9uVXNlIj48c3RvcCBvZmZzZXQ9IjAiIHN0b3AtY29sb3I9IiMzY2NiZjQiLz48c3RvcCBvZmZzZXQ9IjEiIHN0b3AtY29sb3I9IiMyODkyZGYiLz48L2xpbmVhckdyYWRpZW50PjwvZGVmcz48cGF0aCBkPSJNNi4zMywxLjQ2Mmg0Ljc0MzRMNi4xNTU5LDE2LjAzMjhhLjc0MjcuNzQyNywwLDAsMS0uNzAzNy41MDUySDEuNzQzMmEuNzQyNi43NDI2LDAsMCwxLS43MDM2LS45OEw1LjYyNjUsMS45NjcxQS43NDI2Ljc0MjYsMCwwLDEsNi4zMywxLjQ2MloiIGZpbGw9InVybCgjc3ZnLWdyYWRpZW50MS1BenVyZS05NWJlNmU1ZC1mOWZkLTQwYTAtYTc2NS0wNDk1ZGY0YTI0NjkpIi8+PHBhdGggZD0iTTEyLjg3OTMsMTAuOTU0M0g1LjQwMzVhLjM0NTQuMzQ1NCwwLDAsMC0uMjM1Ny41OTc5bDUuMTI2NCw0Ljc4NTlhLjc0My43NDMsMCwwLDAsLjUwNjkuMmg0LjIzNjZaIiBmaWxsPSIjMDA3OGQ0Ii8+PGcgb3BhY2l0eT0iMC41Ij48cGF0aCBkPSJNMTEuNTQ4MywxNi41MzhoMy40ODUxbC0yLjE1ODUtNS41ODM3SDEwLjAzMjZMMTEuNjc3LDE1LjgyMUEuNzUxLjc1MSwwLDAsMSwxMS41NDgzLDE2LjUzOFoiLz48cGF0aCBkPSJNOC45NTEsNy43NDc3LDExLjA3MjQsMS40NjJINi43Njg1YS43NTM4Ljc1MzgsMCwwLDEsLjE0MzcuMjUxNVoiLz48L2c+PGcgb3BhY2l0eT0iMC41Ij48cGF0aCBkPSJNNi41LDEuNDYybDIuMzEyNyw2LjcuMzItLjk1M0w3LjE5NjUsMS40NjJaIiBmaWxsLW9wYWNpdHk9IjAuNSIvPjxwYXRoIGQ9Ik0xMC44ODE2LDE2LjUzNzlsNC4xNTIxLDAtMy4xNTI1LDBhMS4wMjU2LDEuMDI1NiwwLDAsMCwuMDYxLS44MDY0TDEwLjMyOCwxMC45NTQyaC0uNTlsMS42NzQ2LDQuOTU2M2EuNDc1Mi40NzUyLDAsMCwxLS40NS42Mjc0WiIgZmlsbC1vcGFjaXR5PSIwLjUiLz48L2c+PHBhdGggZD0iTTEyLjM3MzYsMS45NjcyQS43NDI3Ljc0MjcsMCwwLDAsMTEuNjcsMS40NjJINi4zODU0QS43NTM2Ljc1MzYsMCwwLDEsNy4xLDEuOTc0OGw0LjU3OTQsMTMuNTY4NWEuNzUzNi43NTM2LDAsMCwxLS43MTQuOTk0N2g1LjI5MTlhLjc0MjcuNzQyNywwLDAsMCwuNzAzNi0uOThaIiBmaWxsPSJ1cmwoI3N2Zy1ncmFkaWVudDItQXp1cmUtOTViZTZlNWQtZjlmZC00MGEwLWE3NjUtMDQ5NWRmNGEyNDY5KSIvPjwvc3ZnPg==;" parent="BDs_c900TrFTkh-3AqSk-25" vertex="1">
          <mxGeometry x="41" y="7.759999999999991" width="54" height="54" as="geometry" />
        </mxCell>
        <mxCell id="BDs_c900TrFTkh-3AqSk-36" value="" style="group" parent="1" vertex="1" connectable="0">
          <mxGeometry x="440" y="400.76" width="360" height="90" as="geometry" />
        </mxCell>
        <mxCell id="BDs_c900TrFTkh-3AqSk-37" value="Microservice 3" style="rounded=0;whiteSpace=wrap;html=1;fillColor=none;labelPosition=center;verticalLabelPosition=bottom;align=center;verticalAlign=top;" parent="BDs_c900TrFTkh-3AqSk-36" vertex="1">
          <mxGeometry width="360" height="90" as="geometry" />
        </mxCell>
        <mxCell id="BDs_c900TrFTkh-3AqSk-40" value="Azure Functions" style="html=1;points=[];align=center;image;fontSize=12;image=img/lib/azure2/compute/Function_Apps.svg;" parent="BDs_c900TrFTkh-3AqSk-36" vertex="1">
          <mxGeometry x="158" y="7.759999999999991" width="54" height="54" as="geometry" />
        </mxCell>
        <mxCell id="BDs_c900TrFTkh-3AqSk-41" value="" style="edgeStyle=orthogonalEdgeStyle;rounded=0;orthogonalLoop=1;jettySize=auto;html=1;startArrow=classic;startFill=1;" parent="BDs_c900TrFTkh-3AqSk-36" source="BDs_c900TrFTkh-3AqSk-42" target="BDs_c900TrFTkh-3AqSk-40" edge="1">
          <mxGeometry relative="1" as="geometry" />
        </mxCell>
        <mxCell id="BDs_c900TrFTkh-3AqSk-42" value="Azure Static Web Apps" style="shape=image;verticalLabelPosition=bottom;labelBackgroundColor=default;verticalAlign=top;aspect=fixed;imageAspect=0;image=data:image/svg+xml,PHN2ZyB4bWxucz0iaHR0cDovL3d3dy53My5vcmcvMjAwMC9zdmciIGFyaWEtbGFiZWxsZWRieT0ic3ZnLXRpdGxlLUF6dXJlLTk1YmU2ZTVkLWY5ZmQtNDBhMC1hNzY1LTA0OTVkZjRhMjQ2OSIgaWQ9InN2Zy1BenVyZS05NWJlNmU1ZC1mOWZkLTQwYTAtYTc2NS0wNDk1ZGY0YTI0NjkiIHZpZXdCb3g9IjAgMCAxOCAxOCIgZGF0YS1zbHVnLWlkPSJhenVyZSIgcm9sZT0iaW1nIj48dGl0bGUgaWQ9InN2Zy10aXRsZS1BenVyZS05NWJlNmU1ZC1mOWZkLTQwYTAtYTc2NS0wNDk1ZGY0YTI0NjkiPlN0YXRpYyBXZWIgQXBwczwvdGl0bGU+PGRlZnM+PGxpbmVhckdyYWRpZW50IGlkPSJzdmctZ3JhZGllbnQxLUF6dXJlLTk1YmU2ZTVkLWY5ZmQtNDBhMC1hNzY1LTA0OTVkZjRhMjQ2OSIgeDE9Ii04MTEuOTM1NCIgeTE9IjEwNy40MjA4IiB4Mj0iLTgxNi44NTI0IiB5Mj0iOTIuODk0OSIgZ3JhZGllbnRUcmFuc2Zvcm09Im1hdHJpeCgxLCAwLCAwLCAtMSwgODIwLCAxMTApIiBncmFkaWVudFVuaXRzPSJ1c2VyU3BhY2VPblVzZSI+PHN0b3Agb2Zmc2V0PSIwIiBzdG9wLWNvbG9yPSIjMTE0YThiIi8+PHN0b3Agb2Zmc2V0PSIxIiBzdG9wLWNvbG9yPSIjMDY2OWJjIi8+PC9saW5lYXJHcmFkaWVudD48bGluZWFyR3JhZGllbnQgaWQ9InN2Zy1ncmFkaWVudDItQXp1cmUtOTViZTZlNWQtZjlmZC00MGEwLWE3NjUtMDQ5NWRmNGEyNDY5IiB4MT0iLTgxMS4wMzQ5IiB5MT0iMTA3Ljg0NDYiIHgyPSItODA1LjYzNzYiIHkyPSI5My40NjQ5IiBncmFkaWVudFRyYW5zZm9ybT0ibWF0cml4KDEsIDAsIDAsIC0xLCA4MjAsIDExMCkiIGdyYWRpZW50VW5pdHM9InVzZXJTcGFjZU9uVXNlIj48c3RvcCBvZmZzZXQ9IjAiIHN0b3AtY29sb3I9IiMzY2NiZjQiLz48c3RvcCBvZmZzZXQ9IjEiIHN0b3AtY29sb3I9IiMyODkyZGYiLz48L2xpbmVhckdyYWRpZW50PjwvZGVmcz48cGF0aCBkPSJNNi4zMywxLjQ2Mmg0Ljc0MzRMNi4xNTU5LDE2LjAzMjhhLjc0MjcuNzQyNywwLDAsMS0uNzAzNy41MDUySDEuNzQzMmEuNzQyNi43NDI2LDAsMCwxLS43MDM2LS45OEw1LjYyNjUsMS45NjcxQS43NDI2Ljc0MjYsMCwwLDEsNi4zMywxLjQ2MloiIGZpbGw9InVybCgjc3ZnLWdyYWRpZW50MS1BenVyZS05NWJlNmU1ZC1mOWZkLTQwYTAtYTc2NS0wNDk1ZGY0YTI0NjkpIi8+PHBhdGggZD0iTTEyLjg3OTMsMTAuOTU0M0g1LjQwMzVhLjM0NTQuMzQ1NCwwLDAsMC0uMjM1Ny41OTc5bDUuMTI2NCw0Ljc4NTlhLjc0My43NDMsMCwwLDAsLjUwNjkuMmg0LjIzNjZaIiBmaWxsPSIjMDA3OGQ0Ii8+PGcgb3BhY2l0eT0iMC41Ij48cGF0aCBkPSJNMTEuNTQ4MywxNi41MzhoMy40ODUxbC0yLjE1ODUtNS41ODM3SDEwLjAzMjZMMTEuNjc3LDE1LjgyMUEuNzUxLjc1MSwwLDAsMSwxMS41NDgzLDE2LjUzOFoiLz48cGF0aCBkPSJNOC45NTEsNy43NDc3LDExLjA3MjQsMS40NjJINi43Njg1YS43NTM4Ljc1MzgsMCwwLDEsLjE0MzcuMjUxNVoiLz48L2c+PGcgb3BhY2l0eT0iMC41Ij48cGF0aCBkPSJNNi41LDEuNDYybDIuMzEyNyw2LjcuMzItLjk1M0w3LjE5NjUsMS40NjJaIiBmaWxsLW9wYWNpdHk9IjAuNSIvPjxwYXRoIGQ9Ik0xMC44ODE2LDE2LjUzNzlsNC4xNTIxLDAtMy4xNTI1LDBhMS4wMjU2LDEuMDI1NiwwLDAsMCwuMDYxLS44MDY0TDEwLjMyOCwxMC45NTQyaC0uNTlsMS42NzQ2LDQuOTU2M2EuNDc1Mi40NzUyLDAsMCwxLS40NS42Mjc0WiIgZmlsbC1vcGFjaXR5PSIwLjUiLz48L2c+PHBhdGggZD0iTTEyLjM3MzYsMS45NjcyQS43NDI3Ljc0MjcsMCwwLDAsMTEuNjcsMS40NjJINi4zODU0QS43NTM2Ljc1MzYsMCwwLDEsNy4xLDEuOTc0OGw0LjU3OTQsMTMuNTY4NWEuNzUzNi43NTM2LDAsMCwxLS43MTQuOTk0N2g1LjI5MTlhLjc0MjcuNzQyNywwLDAsMCwuNzAzNi0uOThaIiBmaWxsPSJ1cmwoI3N2Zy1ncmFkaWVudDItQXp1cmUtOTViZTZlNWQtZjlmZC00MGEwLWE3NjUtMDQ5NWRmNGEyNDY5KSIvPjwvc3ZnPg==;" parent="BDs_c900TrFTkh-3AqSk-36" vertex="1">
          <mxGeometry x="41" y="7.759999999999991" width="54" height="54" as="geometry" />
        </mxCell>
        <mxCell id="BDs_c900TrFTkh-3AqSk-44" value="" style="edgeStyle=none;rounded=0;orthogonalLoop=1;jettySize=auto;html=1;startArrow=classic;startFill=1;" parent="BDs_c900TrFTkh-3AqSk-36" source="WvNd0sxWSo1hWrSyto0N-85" target="BDs_c900TrFTkh-3AqSk-40" edge="1">
          <mxGeometry relative="1" as="geometry" />
        </mxCell>
        <mxCell id="WvNd0sxWSo1hWrSyto0N-85" value="Azure Cosmos DB" style="aspect=fixed;html=1;points=[];align=center;image;fontSize=12;image=img/lib/azure2/databases/Azure_Cosmos_DB.svg;dashed=1;labelBorderColor=none;fillColor=none;" parent="BDs_c900TrFTkh-3AqSk-36" vertex="1">
          <mxGeometry x="280" y="7.759999999999991" width="54" height="54" as="geometry" />
        </mxCell>
        <mxCell id="BDs_c900TrFTkh-3AqSk-43" value="" style="group" parent="1" vertex="1" connectable="0">
          <mxGeometry x="440" y="259.53999999999996" width="360" height="90.00000000000003" as="geometry" />
        </mxCell>
        <mxCell id="BDs_c900TrFTkh-3AqSk-27" value="Microservice 2" style="rounded=0;whiteSpace=wrap;html=1;fillColor=none;labelPosition=center;verticalLabelPosition=bottom;align=center;verticalAlign=top;" parent="BDs_c900TrFTkh-3AqSk-43" vertex="1">
          <mxGeometry width="360" height="90" as="geometry" />
        </mxCell>
        <mxCell id="WvNd0sxWSo1hWrSyto0N-82" value="Azure Logic Apps" style="html=1;points=[];align=center;image;fontSize=12;image=img/lib/azure2/integration/Logic_Apps.svg;dashed=1;labelBorderColor=none;fillColor=none;" parent="BDs_c900TrFTkh-3AqSk-43" vertex="1">
          <mxGeometry x="159" y="7.760000000000019" width="54" height="54" as="geometry" />
        </mxCell>
        <mxCell id="BDs_c900TrFTkh-3AqSk-28" value="Azure SQL Database" style="verticalLabelPosition=bottom;html=1;verticalAlign=top;align=center;strokeColor=none;fillColor=#00BEF2;shape=mxgraph.azure.database;" parent="BDs_c900TrFTkh-3AqSk-43" vertex="1">
          <mxGeometry x="280" y="7.760000000000019" width="40" height="54" as="geometry" />
        </mxCell>
        <mxCell id="BDs_c900TrFTkh-3AqSk-32" value="Azure Static Web Apps" style="shape=image;verticalLabelPosition=bottom;labelBackgroundColor=default;verticalAlign=top;aspect=fixed;imageAspect=0;image=data:image/svg+xml,PHN2ZyB4bWxucz0iaHR0cDovL3d3dy53My5vcmcvMjAwMC9zdmciIGFyaWEtbGFiZWxsZWRieT0ic3ZnLXRpdGxlLUF6dXJlLTk1YmU2ZTVkLWY5ZmQtNDBhMC1hNzY1LTA0OTVkZjRhMjQ2OSIgaWQ9InN2Zy1BenVyZS05NWJlNmU1ZC1mOWZkLTQwYTAtYTc2NS0wNDk1ZGY0YTI0NjkiIHZpZXdCb3g9IjAgMCAxOCAxOCIgZGF0YS1zbHVnLWlkPSJhenVyZSIgcm9sZT0iaW1nIj48dGl0bGUgaWQ9InN2Zy10aXRsZS1BenVyZS05NWJlNmU1ZC1mOWZkLTQwYTAtYTc2NS0wNDk1ZGY0YTI0NjkiPlN0YXRpYyBXZWIgQXBwczwvdGl0bGU+PGRlZnM+PGxpbmVhckdyYWRpZW50IGlkPSJzdmctZ3JhZGllbnQxLUF6dXJlLTk1YmU2ZTVkLWY5ZmQtNDBhMC1hNzY1LTA0OTVkZjRhMjQ2OSIgeDE9Ii04MTEuOTM1NCIgeTE9IjEwNy40MjA4IiB4Mj0iLTgxNi44NTI0IiB5Mj0iOTIuODk0OSIgZ3JhZGllbnRUcmFuc2Zvcm09Im1hdHJpeCgxLCAwLCAwLCAtMSwgODIwLCAxMTApIiBncmFkaWVudFVuaXRzPSJ1c2VyU3BhY2VPblVzZSI+PHN0b3Agb2Zmc2V0PSIwIiBzdG9wLWNvbG9yPSIjMTE0YThiIi8+PHN0b3Agb2Zmc2V0PSIxIiBzdG9wLWNvbG9yPSIjMDY2OWJjIi8+PC9saW5lYXJHcmFkaWVudD48bGluZWFyR3JhZGllbnQgaWQ9InN2Zy1ncmFkaWVudDItQXp1cmUtOTViZTZlNWQtZjlmZC00MGEwLWE3NjUtMDQ5NWRmNGEyNDY5IiB4MT0iLTgxMS4wMzQ5IiB5MT0iMTA3Ljg0NDYiIHgyPSItODA1LjYzNzYiIHkyPSI5My40NjQ5IiBncmFkaWVudFRyYW5zZm9ybT0ibWF0cml4KDEsIDAsIDAsIC0xLCA4MjAsIDExMCkiIGdyYWRpZW50VW5pdHM9InVzZXJTcGFjZU9uVXNlIj48c3RvcCBvZmZzZXQ9IjAiIHN0b3AtY29sb3I9IiMzY2NiZjQiLz48c3RvcCBvZmZzZXQ9IjEiIHN0b3AtY29sb3I9IiMyODkyZGYiLz48L2xpbmVhckdyYWRpZW50PjwvZGVmcz48cGF0aCBkPSJNNi4zMywxLjQ2Mmg0Ljc0MzRMNi4xNTU5LDE2LjAzMjhhLjc0MjcuNzQyNywwLDAsMS0uNzAzNy41MDUySDEuNzQzMmEuNzQyNi43NDI2LDAsMCwxLS43MDM2LS45OEw1LjYyNjUsMS45NjcxQS43NDI2Ljc0MjYsMCwwLDEsNi4zMywxLjQ2MloiIGZpbGw9InVybCgjc3ZnLWdyYWRpZW50MS1BenVyZS05NWJlNmU1ZC1mOWZkLTQwYTAtYTc2NS0wNDk1ZGY0YTI0NjkpIi8+PHBhdGggZD0iTTEyLjg3OTMsMTAuOTU0M0g1LjQwMzVhLjM0NTQuMzQ1NCwwLDAsMC0uMjM1Ny41OTc5bDUuMTI2NCw0Ljc4NTlhLjc0My43NDMsMCwwLDAsLjUwNjkuMmg0LjIzNjZaIiBmaWxsPSIjMDA3OGQ0Ii8+PGcgb3BhY2l0eT0iMC41Ij48cGF0aCBkPSJNMTEuNTQ4MywxNi41MzhoMy40ODUxbC0yLjE1ODUtNS41ODM3SDEwLjAzMjZMMTEuNjc3LDE1LjgyMUEuNzUxLjc1MSwwLDAsMSwxMS41NDgzLDE2LjUzOFoiLz48cGF0aCBkPSJNOC45NTEsNy43NDc3LDExLjA3MjQsMS40NjJINi43Njg1YS43NTM4Ljc1MzgsMCwwLDEsLjE0MzcuMjUxNVoiLz48L2c+PGcgb3BhY2l0eT0iMC41Ij48cGF0aCBkPSJNNi41LDEuNDYybDIuMzEyNyw2LjcuMzItLjk1M0w3LjE5NjUsMS40NjJaIiBmaWxsLW9wYWNpdHk9IjAuNSIvPjxwYXRoIGQ9Ik0xMC44ODE2LDE2LjUzNzlsNC4xNTIxLDAtMy4xNTI1LDBhMS4wMjU2LDEuMDI1NiwwLDAsMCwuMDYxLS44MDY0TDEwLjMyOCwxMC45NTQyaC0uNTlsMS42NzQ2LDQuOTU2M2EuNDc1Mi40NzUyLDAsMCwxLS40NS42Mjc0WiIgZmlsbC1vcGFjaXR5PSIwLjUiLz48L2c+PHBhdGggZD0iTTEyLjM3MzYsMS45NjcyQS43NDI3Ljc0MjcsMCwwLDAsMTEuNjcsMS40NjJINi4zODU0QS43NTM2Ljc1MzYsMCwwLDEsNy4xLDEuOTc0OGw0LjU3OTQsMTMuNTY4NWEuNzUzNi43NTM2LDAsMCwxLS43MTQuOTk0N2g1LjI5MTlhLjc0MjcuNzQyNywwLDAsMCwuNzAzNi0uOThaIiBmaWxsPSJ1cmwoI3N2Zy1ncmFkaWVudDItQXp1cmUtOTViZTZlNWQtZjlmZC00MGEwLWE3NjUtMDQ5NWRmNGEyNDY5KSIvPjwvc3ZnPg==;" parent="BDs_c900TrFTkh-3AqSk-43" vertex="1">
          <mxGeometry x="41" y="7.760000000000019" width="54" height="54" as="geometry" />
        </mxCell>
        <mxCell id="BDs_c900TrFTkh-3AqSk-35" value="" style="edgeStyle=none;rounded=0;orthogonalLoop=1;jettySize=auto;html=1;startArrow=classic;startFill=1;" parent="BDs_c900TrFTkh-3AqSk-43" source="WvNd0sxWSo1hWrSyto0N-82" target="BDs_c900TrFTkh-3AqSk-28" edge="1">
          <mxGeometry relative="1" as="geometry" />
        </mxCell>
        <mxCell id="BDs_c900TrFTkh-3AqSk-34" value="" style="edgeStyle=none;rounded=0;orthogonalLoop=1;jettySize=auto;html=1;startArrow=classic;startFill=1;" parent="BDs_c900TrFTkh-3AqSk-43" source="WvNd0sxWSo1hWrSyto0N-82" target="BDs_c900TrFTkh-3AqSk-32" edge="1">
          <mxGeometry relative="1" as="geometry" />
        </mxCell>
        <mxCell id="BDs_c900TrFTkh-3AqSk-45" value="" style="endArrow=classic;startArrow=classic;html=1;rounded=0;exitX=0.142;exitY=-0.053;exitDx=0;exitDy=0;exitPerimeter=0;entryX=0.142;entryY=1.005;entryDx=0;entryDy=0;entryPerimeter=0;" parent="1" source="BDs_c900TrFTkh-3AqSk-37" target="BDs_c900TrFTkh-3AqSk-27" edge="1">
          <mxGeometry width="50" height="50" relative="1" as="geometry">
            <mxPoint x="450" y="414" as="sourcePoint" />
            <mxPoint x="500" y="364" as="targetPoint" />
          </mxGeometry>
        </mxCell>
        <mxCell id="BDs_c900TrFTkh-3AqSk-47" value="" style="endArrow=classic;startArrow=classic;html=1;rounded=0;entryX=0.129;entryY=1.001;entryDx=0;entryDy=0;entryPerimeter=0;exitX=0.131;exitY=-0.012;exitDx=0;exitDy=0;exitPerimeter=0;" parent="1" source="BDs_c900TrFTkh-3AqSk-27" target="BDs_c900TrFTkh-3AqSk-19" edge="1">
          <mxGeometry width="50" height="50" relative="1" as="geometry">
            <mxPoint x="480" y="260" as="sourcePoint" />
            <mxPoint x="479.9999999999999" y="210" as="targetPoint" />
          </mxGeometry>
        </mxCell>
      </root>
    </mxGraphModel>
  </diagram>
  <diagram id="EeYOPWoSKScuwo26c3SU" name="China">
    <mxGraphModel dx="1422" dy="919" grid="1" gridSize="10" guides="1" tooltips="1" connect="1" arrows="1" fold="1" page="1" pageScale="1" pageWidth="1169" pageHeight="827" math="0" shadow="0">
      <root>
        <mxCell id="0" />
        <mxCell id="1" parent="0" />
        <mxCell id="DVjqENngk1Q3Mi8-f_SU-2" value="Azure China" style="rounded=1;whiteSpace=wrap;html=1;labelBorderColor=none;fillColor=none;strokeColor=#6c8ebf;labelPosition=center;verticalLabelPosition=top;align=center;verticalAlign=bottom;fontStyle=1;dashed=1;" vertex="1" parent="1">
          <mxGeometry x="230" y="30" width="840" height="520" as="geometry" />
        </mxCell>
        <mxCell id="DVjqENngk1Q3Mi8-f_SU-3" value="" style="edgeStyle=none;rounded=0;orthogonalLoop=1;jettySize=auto;html=1;startArrow=classic;startFill=1;entryX=0.565;entryY=-0.023;entryDx=0;entryDy=0;entryPerimeter=0;exitX=0;exitY=0.5;exitDx=0;exitDy=0;endArrow=none;endFill=0;" edge="1" parent="1" source="DVjqENngk1Q3Mi8-f_SU-65" target="DVjqENngk1Q3Mi8-f_SU-67">
          <mxGeometry relative="1" as="geometry">
            <mxPoint x="540" y="320.0000000000002" as="targetPoint" />
          </mxGeometry>
        </mxCell>
        <mxCell id="DVjqENngk1Q3Mi8-f_SU-4" value="API Management" style="aspect=fixed;html=1;points=[];align=center;image;fontSize=12;image=img/lib/azure2/app_services/API_Management_Services.svg;" vertex="1" parent="1">
          <mxGeometry x="810" y="200.00000000000006" width="64" height="59.08" as="geometry" />
        </mxCell>
        <mxCell id="DVjqENngk1Q3Mi8-f_SU-7" value="" style="group;labelPosition=center;verticalLabelPosition=bottom;align=center;verticalAlign=top;labelBorderColor=none;" vertex="1" connectable="0" parent="1">
          <mxGeometry x="60" y="45.99999999999999" width="120" height="118" as="geometry" />
        </mxCell>
        <mxCell id="DVjqENngk1Q3Mi8-f_SU-8" value="" style="verticalLabelPosition=bottom;html=1;verticalAlign=top;align=center;strokeColor=none;fillColor=#00BEF2;shape=mxgraph.azure.mobile;pointerEvents=1;" vertex="1" parent="DVjqENngk1Q3Mi8-f_SU-7">
          <mxGeometry x="7.5" width="35" height="50" as="geometry" />
        </mxCell>
        <mxCell id="DVjqENngk1Q3Mi8-f_SU-9" value="" style="verticalLabelPosition=bottom;html=1;verticalAlign=top;align=center;strokeColor=none;fillColor=#00BEF2;shape=mxgraph.azure.laptop;pointerEvents=1;" vertex="1" parent="DVjqENngk1Q3Mi8-f_SU-7">
          <mxGeometry x="70" y="80" width="50" height="30" as="geometry" />
        </mxCell>
        <mxCell id="DVjqENngk1Q3Mi8-f_SU-10" value="" style="verticalLabelPosition=bottom;html=1;verticalAlign=top;align=center;strokeColor=none;fillColor=#00BEF2;shape=mxgraph.azure.computer;pointerEvents=1;" vertex="1" parent="DVjqENngk1Q3Mi8-f_SU-7">
          <mxGeometry y="73" width="50" height="45" as="geometry" />
        </mxCell>
        <mxCell id="DVjqENngk1Q3Mi8-f_SU-11" value="" style="verticalLabelPosition=bottom;html=1;verticalAlign=top;align=center;strokeColor=none;fillColor=#00BEF2;shape=mxgraph.azure.tablet;pointerEvents=1;" vertex="1" parent="DVjqENngk1Q3Mi8-f_SU-7">
          <mxGeometry x="70" y="6.25" width="50" height="37.5" as="geometry" />
        </mxCell>
        <mxCell id="DVjqENngk1Q3Mi8-f_SU-13" style="rounded=0;orthogonalLoop=1;jettySize=auto;html=1;entryX=1;entryY=0.5;entryDx=0;entryDy=0;startArrow=classic;startFill=1;endArrow=classic;endFill=1;" edge="1" parent="1" source="DVjqENngk1Q3Mi8-f_SU-15" target="DVjqENngk1Q3Mi8-f_SU-65">
          <mxGeometry relative="1" as="geometry" />
        </mxCell>
        <mxCell id="DVjqENngk1Q3Mi8-f_SU-14" value="" style="edgeStyle=none;rounded=0;orthogonalLoop=1;jettySize=auto;html=1;startArrow=classic;startFill=1;" edge="1" parent="1" source="DVjqENngk1Q3Mi8-f_SU-15" target="DVjqENngk1Q3Mi8-f_SU-4">
          <mxGeometry relative="1" as="geometry">
            <mxPoint x="819.1600000000003" y="336.10000000000014" as="targetPoint" />
          </mxGeometry>
        </mxCell>
        <mxCell id="DVjqENngk1Q3Mi8-f_SU-15" value="Azure SQL Database" style="verticalLabelPosition=bottom;html=1;verticalAlign=top;align=center;strokeColor=none;fillColor=#00BEF2;shape=mxgraph.azure.database;" vertex="1" parent="1">
          <mxGeometry x="960" y="98" width="50" height="64" as="geometry" />
        </mxCell>
        <mxCell id="DVjqENngk1Q3Mi8-f_SU-16" value="" style="edgeStyle=none;rounded=0;orthogonalLoop=1;jettySize=auto;html=1;startArrow=none;startFill=0;entryX=0.139;entryY=1.01;entryDx=0;entryDy=0;entryPerimeter=0;" edge="1" parent="1" source="DVjqENngk1Q3Mi8-f_SU-30" target="xdihDBH81FFikDaa1yNv-9">
          <mxGeometry relative="1" as="geometry">
            <mxPoint x="620" y="590" as="targetPoint" />
          </mxGeometry>
        </mxCell>
        <mxCell id="DVjqENngk1Q3Mi8-f_SU-18" value="End Uses" style="rounded=0;whiteSpace=wrap;html=1;fillColor=none;labelPosition=center;verticalLabelPosition=bottom;align=center;verticalAlign=top;" vertex="1" parent="1">
          <mxGeometry x="40" y="29.999999999999993" width="160" height="150" as="geometry" />
        </mxCell>
        <mxCell id="DVjqENngk1Q3Mi8-f_SU-19" value="Auto trigger &lt;br&gt;when&lt;br&gt;&amp;nbsp;code&lt;br&gt;&amp;nbsp;changes" style="edgeStyle=orthogonalEdgeStyle;rounded=0;orthogonalLoop=1;jettySize=auto;html=1;startArrow=none;startFill=0;" edge="1" parent="1" source="DVjqENngk1Q3Mi8-f_SU-25" target="DVjqENngk1Q3Mi8-f_SU-30">
          <mxGeometry relative="1" as="geometry" />
        </mxCell>
        <mxCell id="DVjqENngk1Q3Mi8-f_SU-20" style="edgeStyle=none;rounded=0;orthogonalLoop=1;jettySize=auto;html=1;startArrow=classic;startFill=1;" edge="1" parent="1" source="DVjqENngk1Q3Mi8-f_SU-21" target="DVjqENngk1Q3Mi8-f_SU-4">
          <mxGeometry relative="1" as="geometry">
            <mxPoint x="890" y="230" as="targetPoint" />
          </mxGeometry>
        </mxCell>
        <mxCell id="DVjqENngk1Q3Mi8-f_SU-21" value="Azure Storage" style="verticalLabelPosition=bottom;html=1;verticalAlign=top;align=center;strokeColor=none;fillColor=#00BEF2;shape=mxgraph.azure.storage;pointerEvents=1;labelBorderColor=none;aspect=fixed;" vertex="1" parent="1">
          <mxGeometry x="960" y="258.88" width="64" height="51.2" as="geometry" />
        </mxCell>
        <mxCell id="DVjqENngk1Q3Mi8-f_SU-22" value="" style="edgeStyle=none;rounded=0;orthogonalLoop=1;jettySize=auto;html=1;startArrow=none;startFill=0;exitX=0;exitY=0.75;exitDx=0;exitDy=0;endArrow=classic;endFill=1;" edge="1" parent="1" source="DVjqENngk1Q3Mi8-f_SU-23">
          <mxGeometry x="0.373" y="14" relative="1" as="geometry">
            <mxPoint x="490" y="360" as="targetPoint" />
            <mxPoint as="offset" />
          </mxGeometry>
        </mxCell>
        <mxCell id="DVjqENngk1Q3Mi8-f_SU-23" value="Azure Key Vault" style="shape=image;verticalLabelPosition=bottom;labelBackgroundColor=default;verticalAlign=top;aspect=fixed;imageAspect=0;image=data:image/svg+xml,PHN2ZyB4bWxucz0iaHR0cDovL3d3dy53My5vcmcvMjAwMC9zdmciIGFyaWEtbGFiZWxsZWRieT0ic3ZnLXRpdGxlLUtleVZhdWx0LWYyZjVjZmY4LWRlMTgtNDIxYS1iMjQ1LTNkN2FiMDRiMWE5OSIgaWQ9InN2Zy1LZXlWYXVsdC1mMmY1Y2ZmOC1kZTE4LTQyMWEtYjI0NS0zZDdhYjA0YjFhOTkiIHZpZXdCb3g9IjAgMCAxOCAxOCIgZGF0YS1zbHVnLWlkPSJrZXktdmF1bHQiIHJvbGU9ImltZyI+PHRpdGxlIGlkPSJzdmctdGl0bGUtS2V5VmF1bHQtZjJmNWNmZjgtZGUxOC00MjFhLWIyNDUtM2Q3YWIwNGIxYTk5Ij5LZXkgVmF1bHQ8L3RpdGxlPjxkZWZzPjxyYWRpYWxHcmFkaWVudCBpZD0ic3ZnLWdyYWRpZW50MS1LZXlWYXVsdC1mMmY1Y2ZmOC1kZTE4LTQyMWEtYjI0NS0zZDdhYjA0YjFhOTkiIGN4PSI5IiBjeT0iOSIgcj0iOC41IiBncmFkaWVudFVuaXRzPSJ1c2VyU3BhY2VPblVzZSI+PHN0b3Agb2Zmc2V0PSIwLjE4IiBzdG9wLWNvbG9yPSIjNWVhMGVmIi8+PHN0b3Agb2Zmc2V0PSIwLjU2IiBzdG9wLWNvbG9yPSIjNWM5ZmVlIi8+PHN0b3Agb2Zmc2V0PSIwLjY5IiBzdG9wLWNvbG9yPSIjNTU5Y2VkIi8+PHN0b3Agb2Zmc2V0PSIwLjc4IiBzdG9wLWNvbG9yPSIjNGE5N2U5Ii8+PHN0b3Agb2Zmc2V0PSIwLjg2IiBzdG9wLWNvbG9yPSIjMzk5MGU0Ii8+PHN0b3Agb2Zmc2V0PSIwLjkzIiBzdG9wLWNvbG9yPSIjMjM4N2RlIi8+PHN0b3Agb2Zmc2V0PSIwLjk5IiBzdG9wLWNvbG9yPSIjMDg3YmQ2Ii8+PHN0b3Agb2Zmc2V0PSIxIiBzdG9wLWNvbG9yPSIjMDA3OGQ0Ii8+PC9yYWRpYWxHcmFkaWVudD48cmFkaWFsR3JhZGllbnQgaWQ9InN2Zy1ncmFkaWVudDItS2V5VmF1bHQtZjJmNWNmZjgtZGUxOC00MjFhLWIyNDUtM2Q3YWIwNGIxYTk5IiBjeD0iMzguOTUiIGN5PSIxODIuMDciIHI9IjkuODgiIGdyYWRpZW50VHJhbnNmb3JtPSJ0cmFuc2xhdGUoLTI4LjcxIC0xNjMuMjQpIHNjYWxlKDAuOTQgMC45NCkiIGdyYWRpZW50VW5pdHM9InVzZXJTcGFjZU9uVXNlIj48c3RvcCBvZmZzZXQ9IjAuMjciIHN0b3AtY29sb3I9IiNmZmQ3MGYiLz48c3RvcCBvZmZzZXQ9IjAuNDkiIHN0b3AtY29sb3I9IiNmZmNiMTIiLz48c3RvcCBvZmZzZXQ9IjAuODgiIHN0b3AtY29sb3I9IiNmZWFjMTkiLz48c3RvcCBvZmZzZXQ9IjEiIHN0b3AtY29sb3I9IiNmZWExMWIiLz48L3JhZGlhbEdyYWRpZW50PjwvZGVmcz48cGF0aCBkPSJNOSwuNUE4LjUsOC41LDAsMSwwLDE3LjUsOSw4LjUxLDguNTEsMCwwLDAsOSwuNVpNOSwxNi4zNEE3LjM0LDcuMzQsMCwxLDEsMTYuMzQsOSw3LjM0LDcuMzQsMCwwLDEsOSwxNi4zNFoiIGZpbGw9InVybCgjc3ZnLWdyYWRpZW50MS1LZXlWYXVsdC1mMmY1Y2ZmOC1kZTE4LTQyMWEtYjI0NS0zZDdhYjA0YjFhOTkpIi8+PGNpcmNsZSBjeD0iOSIgY3k9IjkiIHI9IjcuMzQiIGZpbGw9IiNmZmYiLz48cGF0aCBkPSJNMTMuNDQsNy4zM2ExLjg0LDEuODQsMCwwLDAsMC0yLjU5aDBMMTAuMjksMS41OGExLjgzLDEuODMsMCwwLDAtMi41OCwwaDBMNC41Niw0Ljc0YTEuODQsMS44NCwwLDAsMCwwLDIuNTlMNy4xOCwxMGEuNTEuNTEsMCwwLDEsLjE1LjM2djQuODhhLjYzLjYzLDAsMCwwLC4xOC40NGwxLjIsMS4yYS40MS40MSwwLDAsMCwuNTgsMGwxLjE2LTEuMTZoMGwuNjgtLjY4YS4yNS4yNSwwLDAsMCwwLS4zNGwtLjQ5LS40OWEuMjcuMjcsMCwwLDEsMC0uMzdsLjQ5LS40OWEuMjUuMjUsMCwwLDAsMC0uMzRsLS40OS0uNDlhLjI3LjI3LDAsMCwxLDAtLjM3bC40OS0uNDlhLjI1LjI1LDAsMCwwLDAtLjM0bC0uNjgtLjY5di0uMjVaTTksMi4zNUExLDEsMCwwLDEsOSw0LjQyLDEsMSwwLDEsMSw5LDIuMzVaIiBmaWxsPSJ1cmwoI3N2Zy1ncmFkaWVudDItS2V5VmF1bHQtZjJmNWNmZjgtZGUxOC00MjFhLWIyNDUtM2Q3YWIwNGIxYTk5KSIvPjxwYXRoIGQ9Ik04LjE4LDE1LjNoMGEuMjMuMjMsMCwwLDAsLjM4LS4xN3YtNGEuMjQuMjQsMCwwLDAtLjExLS4yaDBhLjIyLjIyLDAsMCwwLS4zNC4ydjRBLjI4LjI4LDAsMCwwLDguMTgsMTUuM1oiIGZpbGw9IiNmZjkzMDAiIG9wYWNpdHk9IjAuNzUiLz48cmVjdCB4PSI2LjQ4IiB5PSI1Ljc5IiByeD0iMC4yOCIgd2lkdGg9IjUuMTciIGhlaWdodD0iMC42MSIgZmlsbD0iI2ZmOTMwMCIgb3BhY2l0eT0iMC43NSIvPjxyZWN0IHg9IjYuNDgiIHk9IjYuNzgiIHJ4PSIwLjI4IiB3aWR0aD0iNS4xNyIgaGVpZ2h0PSIwLjYxIiBmaWxsPSIjZmY5MzAwIiBvcGFjaXR5PSIwLjc1Ii8+PC9zdmc+;" vertex="1" parent="1">
          <mxGeometry x="534" y="239.99999999999997" width="64" height="64" as="geometry" />
        </mxCell>
        <mxCell id="DVjqENngk1Q3Mi8-f_SU-24" value="" style="group" vertex="1" connectable="0" parent="1">
          <mxGeometry x="160" y="610" width="200" height="120" as="geometry" />
        </mxCell>
        <mxCell id="DVjqENngk1Q3Mi8-f_SU-25" value="Source Control" style="rounded=0;whiteSpace=wrap;html=1;fillColor=none;labelPosition=center;verticalLabelPosition=bottom;align=center;verticalAlign=top;" vertex="1" parent="DVjqENngk1Q3Mi8-f_SU-24">
          <mxGeometry width="100" height="120" as="geometry" />
        </mxCell>
        <mxCell id="DVjqENngk1Q3Mi8-f_SU-26" value="Github" style="verticalLabelPosition=bottom;html=1;verticalAlign=top;align=center;strokeColor=none;fillColor=#00BEF2;shape=mxgraph.azure.github_code;pointerEvents=1;aspect=fixed;" vertex="1" parent="DVjqENngk1Q3Mi8-f_SU-24">
          <mxGeometry x="15" y="20" width="64" height="64" as="geometry" />
        </mxCell>
        <mxCell id="DVjqENngk1Q3Mi8-f_SU-63" value="" style="endArrow=classic;startArrow=none;html=1;rounded=0;entryX=1;entryY=0.5;entryDx=0;entryDy=0;startFill=0;" edge="1" parent="1" source="DVjqENngk1Q3Mi8-f_SU-67" target="DVjqENngk1Q3Mi8-f_SU-18">
          <mxGeometry width="50" height="50" relative="1" as="geometry">
            <mxPoint x="487.1600000000001" y="258.4599999999998" as="sourcePoint" />
            <mxPoint x="486.44000000000005" y="210.08999999999992" as="targetPoint" />
          </mxGeometry>
        </mxCell>
        <mxCell id="DVjqENngk1Q3Mi8-f_SU-67" value="Azure AD" style="sketch=0;aspect=fixed;html=1;points=[];align=center;image;fontSize=12;image=img/lib/mscae/Azure_AD_B2C.svg;" vertex="1" parent="1">
          <mxGeometry x="280" y="200" width="64" height="58.88" as="geometry" />
        </mxCell>
        <mxCell id="DVjqENngk1Q3Mi8-f_SU-65" value="Power Platform" style="rounded=0;whiteSpace=wrap;html=1;labelBorderColor=none;fillColor=none;strokeColor=#6c8ebf;labelPosition=center;verticalLabelPosition=top;align=center;verticalAlign=bottom;fontStyle=1;container=0;" vertex="1" parent="1">
          <mxGeometry x="424.5" y="70" width="275.5" height="120" as="geometry" />
        </mxCell>
        <mxCell id="DVjqENngk1Q3Mi8-f_SU-71" value="" style="group" vertex="1" connectable="0" parent="1">
          <mxGeometry x="443" y="88.21999999999997" width="246" height="65.78000000000003" as="geometry" />
        </mxCell>
        <mxCell id="DVjqENngk1Q3Mi8-f_SU-38" value="Power Apps" style="aspect=fixed;html=1;points=[];align=center;image;fontSize=12;image=https://powerautomate.microsoft.com/images/application-logos/svg/powerapps.svg;" vertex="1" parent="DVjqENngk1Q3Mi8-f_SU-71">
          <mxGeometry width="64" height="64" as="geometry" />
        </mxCell>
        <mxCell id="DVjqENngk1Q3Mi8-f_SU-40" value="Power Automate" style="aspect=fixed;html=1;points=[];align=center;image;fontSize=12;image=https://powerapps.microsoft.com/images/application-logos/svg/powerautomate.svg;" vertex="1" parent="DVjqENngk1Q3Mi8-f_SU-71">
          <mxGeometry x="92" width="64" height="64" as="geometry" />
        </mxCell>
        <mxCell id="DVjqENngk1Q3Mi8-f_SU-68" value="Power BI" style="shape=image;verticalLabelPosition=bottom;labelBackgroundColor=default;verticalAlign=top;aspect=fixed;imageAspect=0;image=data:image/png,iVBORw0KGgoAAAANSUhEUgAAAnYAAAJ2CAYAAADSVM/5AAAABGdBTUEAALGPC/xhBQAAACBjSFJNAAB6JgAAgIQAAPoAAACA6AAAdTAAAOpgAAA6mAAAF3CculE8AAAABmJLR0QA/wD/AP+gvaeTAAAf80lEQVR42u3dbYwd13kf8Ofcu7takktSEsWXqIptWYhkI4haw3KbCrIr12ksJ6YRW6iKAnERAy2gBEWDGIWhFIFAtUibuIAawwgaGEH9wU5QS4GFxmgkJ0aUAlXSWM6LUQSuXddSIpGSKFEWyeXL3r07px9kWRS5l3tn9s5w7szvB/CLRSbAc+bM+Z/nzMxNAcAVcfzx/SuxEXekIt+eBvG2HHFz5DgYETsjYo8K0WKnIuJMpDieIr6Vi/g/RRo8kYv0Pw+9/4UzynPlJCUAaDbMDTaKu3NOH42I90TEoqrQIesR8T9S5M8VC4MvHnjvi6tKItgBdDHQHUrj/PGIuDcidqsIPXA6cvznYjB48OCPHX9BOQQ7gLn3zB/fsGN59fx9EfGJiFhWEXroXKT41dWFlV+98b1Pn1cOwQ5gLh1/bP+7U8qfjRQ3qQbEt4sY/MzBHz/+hFIIdgBzIx+JwYu3778vIj8QEQsqAt83jsi/tP8fnfhkSpGVQ7ADaHeoezwWXlzf95mI9DHVgAnzJMVvHbjmpY+l22JdNQQ7gFZ66vG3LO8arT4SKe5SDdjSo2cWVz7iubvZGigBwPblh2K4a3T680IdTO0DO9dXv5Af97jCLCkmwAy8tPe6T0fE3Z4agumliA+9ONr3YMSJf6UaM6spANtx/LH990TKX1AJqBxGfnr/+1/6LZUQ7ACuqOe/fPDGQWx8PXx0GLbj1Hg8vvX6n3zlr5ViezxjB7Ctm+jGp4Q62LY9iwsLv6YM26djB1DRi1++7nCO+F2VgBnJ6QMH7nrxMYXYzmYTgGprUMT9qgCzzHX5AVXYHh07gAqOP7b/roj8qErArMNd8eMH3//yH6hENT53AlBpV1zc68smUMPcyuneiBDsKt+bACjl2a/s3rc4XjoWEUuqATM3Wl8YXX/Dj50+oRTlecYOoKSF8eKHhTqozdLSePFDyiDYATRz40zxPlWA+uSczDHBDqCxRedOVYAapXivIlQtHQBTe+ErBw7G+sbzKgH12hiP9l9/+PRLKlGOjh1Amd3wWr5FFaB+w+GCuSbYAdR91yxuVARoYq4N3qoIgh1A3fYqAdQvRexRBcEOoFZFihVVgAZkwU6wA6hZysn366CRXJeuUoXy/KQYQBlF+J4ANJPsEOwA5DqQ6/rLUSwAgGAHAIBgBwCAYAcAgGAHANBp3ooFKMvrekBL6dgBAAh2AAAIdgAACHYAAGzOyxMAJXl3AhDsALrAj8WCHVSLOYoFABDsAAAQ7AAAEOwAABDsAAA6zVuxAGV5Ww8Q7AC6oFACsINqLUexAACCHQAAbeIoFqAEPzwBzXAQW42OHQBAR+jYAZShZQfN0LKrRMcOAECwAwBAsAMAQLADAECwAwDoNG/FApTlbT2gpXTsAAAEOwAA2sRRLEBJTmKBttKxAwAQ7AAAaBNHsQBl+K1YaIZnHirRsQMAEOwAABDsAAAQ7AAAEOwAADrNW7EAZXlbD2gpHTsAgI7QsQMowWfsoBka49Xo2AEACHYAAAh2AADMnGfsAMrwkB00w0N2lejYAQAIdgAAtImjWIDSnBFB/TzzUIWOHQCAYAcAgGAHAMDMecYOoKTsETugpXTsAAAEOwAABDsAAAQ7AAAEOwCATvNWLEAZRfggPjTB2+eV6NgBAAh2AAAIdgAACHYAAGzOyxMAJXh3Aprh3QnBDsCKA/Sao1gAAMEOAADBDgAAwQ4AAMEOAKDTvBULUIbvnUAzvH1eiY4dAIBgBwCAYAcAwMx5xg6gJI/+AG2lYwcA0BE6dgBladkBLaVjBwAg2AEA0CaOYgFKKZQAGuGZhyp07AAABDsAANrEUSxAGX4rFprhJLYSHTsAAMEOAIA2cRQLUIKTWGiGk9hqdOwAAAQ7AADaxFEsQFnOiICW0rEDABDsAAAQ7AAAEOwAABDsAAA6zVuxAGX4QjE0w9vnlejYAQB0hI4dQEkaCUBb6dgBAAh2AAAIdgAAzJxn7ADK8pAd0FI6dgAAgh0AAIIdAACCHQAAgh0AgGAHAED7+dwJQAlFEZGSOkDdss8KVaJjBwAg2AEAINgBADBznrEDKM3DP1A/D7NWoWMHANAROnYAZWnYAS2lYwcAINgBACDYAQAg2AEAsDkvTwCU5N0JQLAD6IIifF4L7KBay1EsAIBgBwBAmziKhf5yoFhRdkRU/aJz1YFgBwht9CcUC38g2IEgBx0Nf4IeCHYgzFFj8lCCKxX0hDwQ7KCdi9XxIytr4+EdKeL2iHhb5Lg5Ig5GxM6I2KNCtFUxHkUuRrGxdi7GZ1+O9TMvx9orR2P0ytEoNtZr3ZEIeSDYQavC3Ppo4e5I8dHROL8n5VhUFebNYGEpIpZiuLQSS7v3XxC6NmLtu8/GmWN/FeeO/9+JIW+rhue0ee21kCfggWAHjVo9fuTQ4vrw46P1uDdS3j3V6gZzJqVhLF/75li+9s1RjEex+uxfxqm/+bMo1s6U2wCVDHoCHgh20Ij8zIM7RoPV+2I9PhGRl1WEvhgsLMaet7wrdr/pHXHyqSfj5FNfjVyMJwTC6YNeEvD6c/9UAsEO2mT92L9996hY/WzkuEk16KuUFuLqt/79WDn09njprx6L868cnRjIpgl7WcADwQ4a3WXmI4PR0cF9RREPmGPwvcVm59Vx8J33xCvffiJOPvVkRMpbzKPLh7xpA55wN883UyUQ7ODKh7qF0dH0mYj8MdWAN0qDFNfcfEcs7t4XJ/7370fOG5v8pXIhb6uAJ9wh2AHVQt1TR5ZHxwaPROS7VAMmW/mBt8dwcTmO/8WXLn3ubos3JyYds14u4Al39MlACWAGoS4/NBwtps9HFupgGjuuuzH2/+0PRgwGkeMyp275gj8XhbXNns3LE+eomtMPOnYwA2tHv/HpiLhbJaBEuDvw1rjmln8QL3/j8U1DWZqU2tKlge3CjlwOnTsEO6BqqHv2yD05559VCShvzw/+nVj77vOx+tw3Jh6vXhLyJgQ84Q4EO9iWc0//uxtz3vhNlYDq9v3wP4zz3z0a43On3vC/XxzULv7fNjue3fTfCHf0iGfsYBvSYONTEbFbJWAbC9FwKa59+52X/O+vPUd34fNxk56tu9x/zxP+HnSRjh1UdP7o/YejyIdVArZv14G3xo7r3hJnX3r69Y3TJkHstU7bVl23abpyOncIdsDri0KR7rcmwOxc/UM/GmcuCHZ5QsC7MNxdGPYuF9wmPXMHXeMoFio4/8yRu1LEbSoBs7O891DsuPZNlx6/xhuPUzc7np1qMzYh/EGX6NhBFTnuVQSYvT1vujXOnvjrN4SuC7tuEa933i7u3qUJv1qx1duyjmTbe6NFsIPanXr2F/dFUXxAJWD2dh14S6SF5cjr598QvC4OeNsJd8h1XeYoFkpazAsfjogllYDZS2kYKwdu2vzt1rz5mj/Nseykf7vVvwPBDjq/ixy8TxGgPjv2/eAbAtekz51c+Oxd2Wfu5DgEO+DVjkLkO1UB6rNz3w2RL4pel+vexZThbqvAp2tHF3jGDkpY/c6/ORiRD6kE1LgwLe+K4dKO2Bid+95mKr0heF38TN2kZ+4mhTefQEGwAyIiYriQbnGGA/Vb3HXN94Ndjvz9cHdJOLtMuPPSBIIdcHl5eKOnc6CBYLe8N87nY69PvcuEu9f/znQduMt17YRBBDvokRQbex3eQP2GC0uXpK5J4W7TkKdrh2AHbBnsUqx4wBrqN1hcerU3vkW4uyTIxfa3XsJgO7jVVpw7SgDTK3Ly/TpoZHUaTFzhL3xjdtO3Xy/6b1u+QavadIiOHdhFwnxMvC06dzptINhBOUVEJNEOrsgOasI56+UCnWft6BtHsQDMTbaLNxyhXnoke+GvUmz5f/8yx7GepWVe6dgB0M5Ul31EWLJHsINaFUoAV3pVvyDtXe5Zu9f+muNY+sRRLADzGvEuCXQg2AFAV9OeMEjPOIqFK7SgAOWmXZr43zb/aDEIdoBkB12YpRWep/O7sQh2AFDT9innywevN0gXhLFN/o0XKOgLz9gBML/pDxDsAOhYxvMWBESEo1goyXfsoKGopgRQgY4dAEBH6NhBGUX4fSNoQoMNOy9UINiBFQeoe5qZaq4BSnMUCwDQETp2UIKTWGiGZg1Uo2MHgMAHHaFjB6X43AmIcCDYgfUGmP1Uu+CNVlPTrRbBDoDWrux52//cZ0zmmcET7MA+EthkxiZBj57w8gQAgGAHAIBgBwDAzHnGDsooCs/zQhOyZ1lBsAOgI8EuvKfkGqACR7EAAIIdAABt4igWSnM+AEA76dgBAHSEjh2UpWEHjUwzUw0EO6hZoQTQVLST7KA0R7EAAB2hYwclaSIA0FY6dgAAHaFjB6Xp2QEg2MH8K8JvxYL9Ewh2AFAq2E0Kd0kIFO4R7GAmfO4ErOrQXl6eAAAQ7AAAaBNHsQC0ksNY449gBw3cbdxuABDsAKDEJkoJoCzP2AEACHYAALSJo1goxXfsoBnOYaEKHTsAgI7QsYMy/FYsNEPDDgQ7sOJAh6bZLKdaMn3dagU74CIadtDUml4m2Ultkh2v8YwdAEBH6NgB0DqzPokFwQ7YhM+dQHPRDhDswHoDQE95xg4AoCN07KA0LTsw1aCddOwAAAQ7AAAEOwAAZs4zdlCKz51AMzxgB4IdNJHr/KYYyHUg2AFAiWAn3LkGEOwA6Oe6nir8u1Tx/xdynWAHbjcAUCtvxQIACHYAALSJo1gopXASC40w0UCwA8sNmGzQY45iAQAEOwAA2sRRLJTmfAiAdtKxAwDoCB07KMNvxUIzNMZBsINmkh1Qe67LObJwJ9xTmqNYAADBDgAAwQ4AgJnzjB2U5sEPAAQ7kOsAQLADwCZqSslGjP7yjB0AQEfo2EEpvmMHzcgxud2WNvm7dI+vwVehYwcAINgBANAmjmKhhKKISMmxD9QtZwesvb8GlECwA6BDq7qV3TVAaY5iAQAEOwAA2sRRLJTicyfQDOdwUIWOHQBAR+jYQVkaCQAIdiDZAaYa1MlRLACAYAcAgGAHAMDMecYOSvG5E2hCjuwROxDsoIFcl5QBGkh2gGAHQGeC3bThLgmDwj2v8YwdAEBH6NiBbSQAHaFjBwAg2AEA0CaOYqGUIrKTWGiAiQZV6NgBAHSEjh0A7aRpB6Xp2AEAdISOHZSmjQBmGsa/nXTsAAAEOwAA2sRRLJRRFK//LiVQH98VAsEOgD6EPiUwzkziKBYAoCN07ACYM1o5xhnBDtxsAOg4R7EAAB2hYwdladgBINgBQIkNlE0UCHZQr0IJoJFclyvnunRRPoQ+8YwdAEBH6NhBCUX44Qlogk4bCHZgyQFAsAOmpGUH9k8g2AGAcIfxr5uXJwAAOkLHDkrxuRNohnYNVKFjBwAg2AEA0CaOYqGs7IgIAMGOzTLC8V9fWRufuSNFuj0ivS0i3xwRByNiZ0TsUSFae+0WG5FyEUWxHnm8Fnl8PjbWViOPTkfOnkVkuxeYPZRLAMFujsLc+sa5uyOKj47GZ9+TIi26jJk3aTCMiGEMhosRiztfvaHsjoicoxidjo2zJ2Lj3CuR84ZiAQh23bN6/JOHFtfTx0fjM/dGxG5hjm4mvojBVbtjcNXuWNi7ERtnX4z11RciNsZqAyDYzb/8zIM7RoPxfTGOT0TKyypCbzLeYBgLK4diuOtAjFefj/Hp55yvMe2dUwlAsGuf9WOffPcoxp+NiJtUg94GvDSIxd3Xx8LOfTF6+akoRquKAiDYzdFeMx8ZjJ7beV8R+QF1hu8FvOFSXHXdzbF+6liMT78QujJMvokqAQh27Ql1C6NjOz4TkT+mGnBJvIvFPX8rBgs7YvTdp63gCHcYf8GuxdfhU0eWR8d2PBIRd6kGTDbceW1cNRjG2svf9twdwIz45YlZhrr80HC0uPx5oQ6mvAEt742la2+KSEkxAGZAx26G1p77zqdTirv1j2F6w+W9sbjnhhidfEYxAAS7loS6Z3/lnsjxsyoBFW5EKweiWD8T47MnFIPvsUEGwe4KOff8f7wxNjZ+UyWgusW9b371J8nGa4pBZNEOBLsrZbAx/lR8/5ckgCrSIMXS3hti7cT/UwwkO6iaSZRge84f/ZXDEXFYJWD7hjuujuHyHoUAqEjHbptSFPdHeKMPZmVx7/Wxcf6kQgBUoGO3DeeP/Ye7ItJtKgEzvCkt7orB8l6FAKhAx24bUi7u1a2D2VvcdV2s6dr1nIfssL4Kdk3ecp799/tGER9QCZi94Y69kdIwcjFWjN7eZIU6EOwatD5IH46cl1QC6tmpD3dcHeMzLylFr8OdEhh/BLumrreieJ8qQH0GV+2OEOwAyt07laCilO9UBKjP8KoVRQAoSceugtUXfvlgrMchlYAa907DpUgDz9kBCHY1u2ot31IMvK0DdRssLsfG2qpC9JRHrIw/gl0zF9sgbnTJQf3SYMlUAxDs6lXk2Js07KB+g6Ea9HYHHUI9CHbNSCk81Q1NzLXB0Ore62QHCHYNKHJeSlp20MDSnizvYh0g2LntAACCHUDLNlA2UQDT8oFiAICO0LGrpIgIz9hB/bKGXY+HHhDs3HQA3Gcx/oIdgLs7xh0EOwCYeawT7UCws5sEAAQ7gHZuoGyiAAQ7QK4DEOyYbrUBzDWEemgXHygGAOgIHTug5bRtjDswLR07AICO0LGzmwQABDsAeyiMOwh2AFOv7lZ44Q4Q7OpUFBFJGaD2dT1na7tch/GnBC9PAAB0hI4dYN+OcQfBDgCEO4y/YOeCA6adZqYagGAHQEdDfZqwz06b7LvTJn9nq/9uD98OXlIU7IA+re4ACHYzUSgBNBbsAJiWz50AAHSEjh3Qcrp2xh0Q7ADrO8YdBDvcdQDae5t197XMMpln7AAAOkLHzk4CWj7RTDYAwa5WPncCdlAA7eMoFgCgI3TsgPZyEgsg2AFdynaSXS/HPWehvu/8Vqxg1/RyAwDQJp6xAwDoCB07oMU8ZAcg2NXO506guWAHgGAHyHbM77DP6N2J5DIy9QU7ALCyY/wFOwB3d4w7CHZzpYiI5KYD1naAdvG5EwCAjtCxA1rM504ABDtArgMQ7JiO79hBc8kOoZ5e8luxlXjGDgCgI3TsgJbTtjHugGDnpgMACHYAYPsM88gzdgAAHaFjZycJLZ5nOXI22/o5+F6LxWuxgl1jfO4EbKEw/Bj/9nEUCwDQETp2dhJgsmHcQbBz0wEAaBNHsQAAHaFjB7SXFyMBBDtAssPQM+d87USwa47PnUBzqzsAgh0Acx3pxXrXAIId4PaOcQfBDjcdAECwA7CHwriDYAcAwh3GX7ADenJnd3cHEOzqVBS+rwON5DqhDqAMPykGANAROnZAq2VHscYdEOyauO0ADUwzUw1AsANAqGeOeZZdsAOgW9lumvVe/gPBDpibpd2yDSDY1apQAmgs2AEwLZ87AQDoCB07oN007Yw7INi564C5xpyPu6E39SnNUSwAgGAHAECbOIqtSosYGppoJhuAYFcrnzsBOygAwQ6gXK6T7QAEOwDmPdRL9b2WjL9g1/hdBzDXqGfUs5E386nAW7EAAB2hYwe0esdu1w4g2AGiHYBgxzR87gQaC3ZyXX8zPSDYASD0YZz7yssTAAAdoWMH2LZj3EGwc9MBABDs5l0REUkZwP4JQLADmD7YCXcAgl29fO4Emptrkl1vc72h7zcnY5V4KxYAQLADAKBNHMUCLec8zrgDgp2bDgAg2AHYQ2HcQbADgFkFu2nDXRIGhXsEu23xuRNobq65uwNMy1uxAAAdoWNXgV8Ug2b44Yl+jz0g2LnrgMmGcQfBDjcdgDbdYd1lXQMIdoDVHUCwA4DWBXv6y8Psgl1zfO4EmptrVneAafncCQCAYAcAgGAHAMDMecauMs/9QDNTzVwz7oBgB8B8751lO9cAgh0Akh1d4Hsngl1jfO4EmptrFncAwQ6AuSbSg2DXjCJ0iMHKDiDYAZQKdsIdgGDXzIoDmGvUNu5Vhz65fDrByZhgB3Qv0lmXAabnlycAADpCx64SnzuB5uaanh3AtHTsAAA6QscOaDcNO+MOCHYAzHmwE+5cAwh2rjgw1zDuINgBQItinWjnGqA8L08AAAh2AAC0iaPYSgo9YmhCLiKyyQYg2AEw58FeCXrNb8VW4igWAKAjdOxsJcFcw7hDR+jYAQAIdgAAtImjWKDdnMgZd0Cwq1ehBNDYXLPC9zbYGXrXAIId4N5Ov3JdmuJa2ervJNcbHeEZOwCAjtCx29Z+EjDXMO7QHjp2AAAdoWNXRRF+6gSammsaNwCCHQBzTqjvNw0Uwa45PncCzc01qzuAYAfAnBPqjT9leXkCAKAjdOzsJAAAwQ6giT2UTZRxBwQ7AOY618002/nNMNm+JzxjBwDQETp2lfjcCTQ312zbAaalYwcAINgBANAmjmIrczwEAAh2ch0w3TTLEdmrcW6ygGDnlgPgRsscS0pQhWfsAAA6QseuEp87gebmmrYNwLR07AAAOkLHDoBW0qsFwc4tB0w1jDsIdgBWeNoz7Hny0CeXiKnPJJ6xAwAQ7AAAaBNHsZX43Ak0w1kMgGAHdCjYCXcAgl2divBTJ9DUXJPrAAS7+lltANxmqY0GimAHWN0x7tBn3ooFAOgIHTsAWsdrMxh/wa5BPncCbu0Agh1AqWCXs3DXy5E37CDYAdCZTK9h6xqgAi9PAAB0hI6drQSYaxh3EOwAoM5gJ9z1my8UV+EoFgCgI3TsKvG5E2hEzpo2AIJdEwuOEkAzE81kc5+ll5zEVuIoFgCgI3TsAGglDTsQ7NxyAADBDsAmCuMOgh2A9R3jDoLdvPK5E7C6U/vQG37XAIIdYHUH6CufOwEAEOwAAGgTR7GVOR6CJmaZmQYg2AGdSXainc0zINgB0K9sl2TCTvFbsYJdY4rCBQeNLOxW6D5nOqPvGkCwAyzvAL3lrVgAAMEOAIA2cRRbmeMhMNUw7iDYAVjh2WLYs6E39anAUSwAQEfo2FVSKAHYsgO0jo4dAEBH6NgBLeY7dgBl6NgBAHSEjl1lugjQyDQz1fo7/Ma+3/x0p2An14HJhnGHPnMUCwDQETp2lfjcCTRD1wZAsGsg1jn6h2ZinWjX50hv9F0FCHaAaAcg2AHYtGPcQbBz1wFg1rdYt1nXAIId4O6OcYe+8rkTAICO0LGrxOdOoBm6NgCCHQBzH+nLxvpkO2Bbh2AHtPnOnv1gKIBgB0B3A/82/32a4f8t6uOXAAS7xhQRkdwNoPULOEDPeCsWAKAjdOyAltO2M+7AtHTsAAA6QseuEt+xg2ZkjZseDz0g2AGdW92t8MIdxp9pOYoFAOgIHTtbCWj1LDPTAAQ7AGyfQbADsLxj3EGwA5j92m59BxDs6uVzJ9BcskOop5f8VqxgZ70BqztAn/ncCQBAR+jYVaaLAAC0i44dAEBH6NgB7ZZ1x407INgBMOfhTgmMP4JdI3zuBNzZAQQ7AJgq0ov1rgEEO8DyDiDYYS8BAAh2APXtn+yhDD495TfFBDugows8/Rv2PJuhTy4jua5ffKAYAKAjdOyqKAo7CWhCzhotfR16JYBKdOwAADpCxw5oMQ/QAwh2jS04gKmGcQfBDgCEO4y/YAe4u9OHcTfyUJ6XJwAAOkLHrpJCCaARejYAZejYAQB0hI4d0GI+dwIg2DW24AByHVd87P0ebDf5hadKHMUCAAh2AAC0iaPYqrT8wWTDuINg1wU+dwIWd4D2cRQLANAROnZAi+WIrGvX16Gv8J/oxyWAYOeSg3mdZWaa2yzGH8Gu5mutGPnADgDUKBVrilCeZ+yqXGt5sKoKAFBjQMlxShXK07GrEuxScTLr2EFDnMcYd3pKsBPsGrrd5MFTkXzyBCzuQF1SEd9RBcGumYttceObeaxjB43kOtkOemljGN9UBcGuESs/8qcvnP7LH30+chxSDZDsMPTM3LHD/zVeUobyvDxR+aaTH1cEAKhBSn+oCNXo2FXeTKY/TDn/U5WAWica0MepnwvBriIdu6oX3VL6YkT2jR0AmK3R+ih+Vxmq0bGraO8P/8nLp//s7z0aKX5KNaDWbZQS9HLUs5Hvry995JE4oQyCXeNS5N/IIdhBraHO6t7jPG/we7m25vgNVajOUew2rLzzq1/OEU+qBEBN4c6ffv0p4k8/+FB8xcUv2F25+06KB1QBAGaSSu5XBMHuitr7jq/+94jsIU+oZ+vkT2//0LvZnuOLh78Qv68S2+MZuxkYp+HPL+SNOyNij2oAQGknU8QvKMP26djNwDXv+F9PR45/oRIAUEGOnzv8cPyNQmyfjt2M7H7nkw+d/vO/++6I/C9VA2Z2s4/IjuX6O/j0ZKR/7UMPx2+rhGDXOivv+OrPr/7Fuw5G5H+sGjCbW77lvacj71G7XkgR/+1cxL9WidlxFDvLCzRFsXJy1z/LEY+qBgBc1u8NVuOf3PNwbCiFYNfecPfePzq/++TKh1LEf1ENANjU537gmvipn3g0/DTnjDmKrSfcjXOOf376z2/7Zor4ZXWGqpzHQcespxy/+JO/Ew8mk1uwm6twlyJHfO2Tp5687Yk0yJ+NiB9SFYBysX7m92ZbhSs5nt8aRPzMB38n/kQ16uMotmZ73vW1J1b2nPyRyHF/RJxVEaiwuvvjG8XMszMR8UuLq3Hr4YeFurolJWjO6a/feiBtLP5CzvFz4WPGsKWzx56LM0ePKUQPHfv2q3+mWsjS5AXt4v+WLvqL6eLFMFkkZ+hUivj1YYr/9BMPx4vKIdh11vNfv3XXysbwIzmnn46IOyNiSVVgUrB7TiEEO8FufqzlFH8URXx+eWc88v7PxRklEex6JX/tnTvPRNyRU749It4WOd0SKR+IiJXQ1UOwE+wEO8GunU5FxGpEvBA5vpVSfKNI8ceD8/HE4S957OhK+v9gfJLy04XkbwAAACV0RVh0ZGF0ZTpjcmVhdGUAMjAyMS0wMS0xMVQyMDowMjozNiswMDowMO1c/vEAAAAldEVYdGRhdGU6bW9kaWZ5ADIwMjEtMDEtMTFUMjA6MDI6MzYrMDA6MDCcAUZNAAAAAElFTkSuQmCC;" vertex="1" parent="DVjqENngk1Q3Mi8-f_SU-71">
          <mxGeometry x="182" y="1.7800000000000296" width="64" height="64" as="geometry" />
        </mxCell>
        <mxCell id="xdihDBH81FFikDaa1yNv-11" value="" style="group" vertex="1" connectable="0" parent="1">
          <mxGeometry x="424.5" y="370" width="316.5" height="120" as="geometry" />
        </mxCell>
        <mxCell id="SAtwd-Jo3StCJ3sVSPFn-1" value="Web App" style="aspect=fixed;html=1;points=[];align=center;image;fontSize=12;image=img/lib/azure2/app_services/App_Services.svg;" vertex="1" parent="xdihDBH81FFikDaa1yNv-11">
          <mxGeometry x="16.5" y="15.639999999999986" width="64" height="64" as="geometry" />
        </mxCell>
        <mxCell id="Wqpvxjd7Rx4QwYuusxu9-3" value="Azure Functions" style="html=1;points=[];align=center;image;fontSize=12;image=img/lib/azure2/compute/Function_Apps.svg;" vertex="1" parent="xdihDBH81FFikDaa1yNv-11">
          <mxGeometry x="126.5" y="25.639999999999986" width="54" height="54" as="geometry" />
        </mxCell>
        <mxCell id="xdihDBH81FFikDaa1yNv-3" value="Azure Logic Apps" style="html=1;points=[];align=center;image;fontSize=12;image=img/lib/azure2/integration/Logic_Apps.svg;dashed=1;labelBorderColor=none;fillColor=none;" vertex="1" parent="xdihDBH81FFikDaa1yNv-11">
          <mxGeometry x="236.5" y="25.639999999999986" width="54" height="54" as="geometry" />
        </mxCell>
        <mxCell id="xdihDBH81FFikDaa1yNv-9" value="Custom App" style="rounded=0;whiteSpace=wrap;html=1;labelBorderColor=none;fillColor=none;strokeColor=#6c8ebf;labelPosition=center;verticalLabelPosition=top;align=center;verticalAlign=bottom;fontStyle=1;container=0;" vertex="1" parent="xdihDBH81FFikDaa1yNv-11">
          <mxGeometry width="316.5" height="120" as="geometry" />
        </mxCell>
        <mxCell id="xdihDBH81FFikDaa1yNv-12" value="" style="edgeStyle=none;rounded=0;orthogonalLoop=1;jettySize=auto;html=1;startArrow=classic;startFill=1;entryX=1;entryY=0.75;entryDx=0;entryDy=0;" edge="1" parent="1" source="DVjqENngk1Q3Mi8-f_SU-4" target="DVjqENngk1Q3Mi8-f_SU-65">
          <mxGeometry relative="1" as="geometry">
            <mxPoint x="1000" y="177.4386503067485" as="sourcePoint" />
            <mxPoint x="894" y="217.45852760736193" as="targetPoint" />
          </mxGeometry>
        </mxCell>
        <mxCell id="xdihDBH81FFikDaa1yNv-13" style="edgeStyle=none;rounded=0;orthogonalLoop=1;jettySize=auto;html=1;startArrow=classic;startFill=1;exitX=1;exitY=0.5;exitDx=0;exitDy=0;entryX=-0.044;entryY=0.598;entryDx=0;entryDy=0;entryPerimeter=0;" edge="1" parent="1" source="xdihDBH81FFikDaa1yNv-9" target="DVjqENngk1Q3Mi8-f_SU-4">
          <mxGeometry relative="1" as="geometry">
            <mxPoint x="986" y="287.8101694915256" as="sourcePoint" />
            <mxPoint x="810" y="230" as="targetPoint" />
          </mxGeometry>
        </mxCell>
        <mxCell id="xdihDBH81FFikDaa1yNv-14" value="" style="edgeStyle=none;rounded=0;orthogonalLoop=1;jettySize=auto;html=1;startArrow=none;startFill=0;entryX=0.5;entryY=1;entryDx=0;entryDy=0;exitX=0.5;exitY=0;exitDx=0;exitDy=0;endArrow=classic;endFill=1;" edge="1" parent="1" source="DVjqENngk1Q3Mi8-f_SU-23" target="DVjqENngk1Q3Mi8-f_SU-65">
          <mxGeometry x="0.373" y="14" relative="1" as="geometry">
            <mxPoint x="576" y="259.0799999999999" as="sourcePoint" />
            <mxPoint x="578.2500000000002" y="409.9999999999998" as="targetPoint" />
            <mxPoint as="offset" />
          </mxGeometry>
        </mxCell>
        <mxCell id="xdihDBH81FFikDaa1yNv-17" value="" style="edgeStyle=none;rounded=0;orthogonalLoop=1;jettySize=auto;html=1;startArrow=classic;startFill=1;exitX=0;exitY=0.25;exitDx=0;exitDy=0;endArrow=none;endFill=0;" edge="1" parent="1" source="xdihDBH81FFikDaa1yNv-9">
          <mxGeometry relative="1" as="geometry">
            <mxPoint x="424.5" y="290" as="sourcePoint" />
            <mxPoint x="340" y="250" as="targetPoint" />
          </mxGeometry>
        </mxCell>
        <mxCell id="DVjqENngk1Q3Mi8-f_SU-30" value="CI/CD Pipelines" style="rounded=0;whiteSpace=wrap;html=1;fillColor=none;labelPosition=center;verticalLabelPosition=bottom;align=center;verticalAlign=top;" vertex="1" parent="1">
          <mxGeometry x="400" y="610" width="100" height="120" as="geometry" />
        </mxCell>
        <mxCell id="DVjqENngk1Q3Mi8-f_SU-32" value="Github Actions" style="verticalLabelPosition=bottom;html=1;verticalAlign=top;align=center;strokeColor=none;fillColor=#00BEF2;shape=mxgraph.azure.github_code;pointerEvents=1;aspect=fixed;" vertex="1" parent="1">
          <mxGeometry x="420" y="630" width="64" height="64" as="geometry" />
        </mxCell>
        <mxCell id="xdihDBH81FFikDaa1yNv-19" value="Kinco Data Center" style="aspect=fixed;perimeter=ellipsePerimeter;html=1;align=center;shadow=0;dashed=0;spacingTop=3;image;image=img/lib/active_directory/database_server.svg;rounded=0;strokeColor=default;" vertex="1" parent="1">
          <mxGeometry x="1193" y="90.98000000000002" width="64" height="78.05" as="geometry" />
        </mxCell>
        <mxCell id="xdihDBH81FFikDaa1yNv-21" value="" style="edgeStyle=none;rounded=0;orthogonalLoop=1;jettySize=auto;html=1;startArrow=classic;startFill=1;exitX=1;exitY=0.5;exitDx=0;exitDy=0;exitPerimeter=0;entryX=0;entryY=0.5;entryDx=0;entryDy=0;" edge="1" parent="1" source="DVjqENngk1Q3Mi8-f_SU-15" target="xdihDBH81FFikDaa1yNv-19">
          <mxGeometry relative="1" as="geometry">
            <mxPoint x="970" y="157.40209790209792" as="sourcePoint" />
            <mxPoint x="884" y="217.2653146853147" as="targetPoint" />
          </mxGeometry>
        </mxCell>
      </root>
    </mxGraphModel>
  </diagram>
</mxfile>
